M48
; DRILL file {KiCad 8.0.1} date 2024-04-17T17:56:11-0700
; FORMAT={-:-/ absolute / metric / decimal}
; #@! TF.CreationDate,2024-04-17T17:56:11-07:00
; #@! TF.GenerationSoftware,Kicad,Pcbnew,8.0.1
; #@! TF.FileFunction,Plated,1,2,PTH
FMAT,2
METRIC
; #@! TA.AperFunction,Plated,PTH,ComponentDrill
T1C0.700
%
G90
G05
T1
X139.3Y-27.799
X139.3Y-30.199
X139.3Y-33.8
X139.3Y-36.2
X139.3Y-39.799
X139.3Y-42.2
X146.7Y-27.799
X146.7Y-30.199
X146.7Y-33.8
X146.7Y-36.2
X146.7Y-39.799
X146.7Y-42.2
X150.3Y-27.799
X150.3Y-30.199
X150.3Y-33.8
X150.3Y-36.2
X150.3Y-39.799
X150.3Y-42.2
X157.7Y-27.799
X157.7Y-30.199
X157.7Y-33.8
X157.7Y-36.2
X157.7Y-39.799
X157.7Y-42.2
M30
