M48
; DRILL file {KiCad 8.0.1} date 2024-04-17T17:56:11-0700
; FORMAT={-:-/ absolute / metric / decimal}
; #@! TF.CreationDate,2024-04-17T17:56:11-07:00
; #@! TF.GenerationSoftware,Kicad,Pcbnew,8.0.1
; #@! TF.FileFunction,NonPlated,1,2,NPTH
FMAT,2
METRIC
; #@! TA.AperFunction,NonPlated,NPTH,ComponentDrill
T1C0.500
; #@! TA.AperFunction,NonPlated,NPTH,ComponentDrill
T2C1.100
%
G90
G05
T1
X142.0Y-27.0
X142.0Y-30.999
X142.0Y-33.0
X142.0Y-36.999
X142.0Y-39.0
X142.0Y-42.999
X143.0Y-27.0
X143.0Y-30.999
X143.0Y-33.0
X143.0Y-36.999
X143.0Y-39.0
X143.0Y-42.999
X144.0Y-27.0
X144.0Y-30.999
X144.0Y-33.0
X144.0Y-36.999
X144.0Y-39.0
X144.0Y-42.999
X153.0Y-27.0
X153.0Y-30.999
X153.0Y-33.0
X153.0Y-36.999
X153.0Y-39.0
X153.0Y-42.999
X154.0Y-27.0
X154.0Y-30.999
X154.0Y-33.0
X154.0Y-36.999
X154.0Y-39.0
X154.0Y-42.999
X155.0Y-27.0
X155.0Y-30.999
X155.0Y-33.0
X155.0Y-36.999
X155.0Y-39.0
X155.0Y-42.999
T2
X142.5Y-22.5
X142.5Y-47.499
X154.5Y-22.5
X154.5Y-47.499
M30
