G04 #@! TF.GenerationSoftware,KiCad,Pcbnew,8.0.1*
G04 #@! TF.CreationDate,2024-04-12T13:03:15-07:00*
G04 #@! TF.ProjectId,Pinlight_panel,50696e6c-6967-4687-945f-70616e656c2e,rev?*
G04 #@! TF.SameCoordinates,Original*
G04 #@! TF.FileFunction,Paste,Top*
G04 #@! TF.FilePolarity,Positive*
%FSLAX46Y46*%
G04 Gerber Fmt 4.6, Leading zero omitted, Abs format (unit mm)*
G04 Created by KiCad (PCBNEW 8.0.1) date 2024-04-12 13:03:15*
%MOMM*%
%LPD*%
G01*
G04 APERTURE LIST*
%ADD10C,1.100000*%
%ADD11R,1.400000X0.650000*%
G04 APERTURE END LIST*
D10*
X154500000Y-47499500D03*
D11*
X152300000Y-27899500D03*
X152300000Y-28999500D03*
X152300000Y-30099500D03*
X155700000Y-30099500D03*
X155700000Y-28999500D03*
X155700000Y-27899500D03*
X152300000Y-33899500D03*
X152300000Y-34999500D03*
X152300000Y-36099500D03*
X155700000Y-36099500D03*
X155700000Y-34999500D03*
X155700000Y-33899500D03*
X152300000Y-39899500D03*
X152300000Y-40999500D03*
X152300000Y-42099500D03*
X155700000Y-42099500D03*
X155700000Y-40999500D03*
X155700000Y-39899500D03*
X141300000Y-33899500D03*
X141300000Y-34999500D03*
X141300000Y-36099500D03*
X144700000Y-36099500D03*
X144700000Y-34999500D03*
X144700000Y-33899500D03*
D10*
X154500000Y-22500000D03*
D11*
X141300000Y-27899500D03*
X141300000Y-28999500D03*
X141300000Y-30099500D03*
X144700000Y-30099500D03*
X144700000Y-28999500D03*
X144700000Y-27899500D03*
D10*
X142500000Y-22500000D03*
D11*
X141300000Y-39899500D03*
X141300000Y-40999500D03*
X141300000Y-42099500D03*
X144700000Y-42099500D03*
X144700000Y-40999500D03*
X144700000Y-39899500D03*
D10*
X142500000Y-47499500D03*
M02*
