%TF.GenerationSoftware,KiCad,Pcbnew,8.0.1*%
%TF.CreationDate,2024-04-12T13:03:49-07:00*%
%TF.ProjectId,Pinlight_panel,50696e6c-6967-4687-945f-70616e656c2e,rev?*%
%TF.SameCoordinates,Original*%
%TF.FileFunction,Drillmap*%
%TF.FilePolarity,Positive*%
%FSLAX45Y45*%
G04 Gerber Fmt 4.5, Leading zero omitted, Abs format (unit mm)*
G04 Created by KiCad (PCBNEW 8.0.1) date 2024-04-12 13:03:49*
%MOMM*%
%LPD*%
G01*
G04 APERTURE LIST*
%ADD10C,0.100000*%
%ADD11C,0.200000*%
G04 APERTURE END LIST*
D10*
X15849904Y-3971151D02*
X15849135Y-3963593D01*
X15786357Y-4299085D02*
X15793799Y-4297556D01*
X13851535Y-3040047D02*
X13853439Y-3047402D01*
X15002548Y-4296510D02*
X15006201Y-4297556D01*
X14740576Y-3661348D02*
X14743922Y-3654527D01*
X14675000Y-3099950D02*
X14682588Y-3099565D01*
X14731907Y-3326097D02*
X14726672Y-3320590D01*
X15500000Y-2500000D02*
X15850000Y-2500000D01*
X14950000Y-3974950D02*
X14950000Y-4224950D01*
X15836557Y-2732105D02*
X15831907Y-2726097D01*
X13870640Y-3323277D02*
X13868093Y-3326097D01*
X15013643Y-3699085D02*
X15017412Y-3699565D01*
X13850865Y-3363593D02*
X13850385Y-3367362D01*
X14745331Y-3948902D02*
X14742335Y-3941920D01*
X14693799Y-3902344D02*
X14686357Y-3900815D01*
X13888602Y-3309374D02*
X13885328Y-3311302D01*
X14723853Y-3318043D02*
X14720908Y-3315642D01*
X14200000Y-2700011D02*
X13921201Y-2700046D01*
X15845331Y-4250998D02*
X15847606Y-4243749D01*
X15025000Y-3699950D02*
X15300000Y-3699950D01*
X14675000Y-3699950D02*
X14682588Y-3699565D01*
X14988602Y-4290526D02*
X14991970Y-4292285D01*
X14970640Y-3923277D02*
X14968093Y-3926097D01*
X13873327Y-3320590D02*
X13870640Y-3323277D01*
X13856078Y-2745373D02*
X13853439Y-2752498D01*
X13850000Y-2500000D02*
X14200000Y-2500000D01*
X13921201Y-4299854D02*
X13925000Y-4299950D01*
X14749615Y-3367362D02*
X14749135Y-3363593D01*
X13898952Y-3304618D02*
X13891970Y-3307615D01*
X14953439Y-4247402D02*
X14954668Y-4250998D01*
X13851535Y-2759853D02*
X13850865Y-2763593D01*
X13859424Y-4261348D02*
X13863443Y-4267795D01*
X15009903Y-3698415D02*
X15013643Y-3699085D01*
X14963443Y-2732105D02*
X14959424Y-2738552D01*
X15801048Y-3904618D02*
X15797452Y-3903389D01*
X15021201Y-3300046D02*
X15013643Y-3300815D01*
X14738648Y-3935278D02*
X14734308Y-3929042D01*
X13917412Y-3300335D02*
X13909903Y-3301485D01*
X14961352Y-3064622D02*
X14963443Y-3067795D01*
X14953439Y-2752498D02*
X14951535Y-2759853D01*
X15820908Y-3915642D02*
X15817845Y-3913393D01*
X13879092Y-3684258D02*
X13885328Y-3688598D01*
X15300000Y-4299950D02*
X15300000Y-4499950D01*
X15009903Y-2701485D02*
X15006201Y-2702344D01*
X14736557Y-3667795D02*
X14740576Y-3661348D01*
X13850385Y-3967362D02*
X13850000Y-3974950D01*
X15300000Y-3799950D02*
X15300000Y-3900011D01*
X14954668Y-4250998D02*
X14957665Y-4257980D01*
X15013643Y-2700815D02*
X15009903Y-2701485D01*
X13853439Y-3647402D02*
X13856078Y-3654527D01*
X14950000Y-3024950D02*
X14950385Y-3032538D01*
X14749615Y-3032538D02*
X14750000Y-3024950D01*
X13909903Y-3301485D02*
X13902548Y-3303389D01*
X15013643Y-3900815D02*
X15009903Y-3901485D01*
X14717845Y-3913393D02*
X14711398Y-3909374D01*
X14950865Y-3036307D02*
X14951535Y-3040047D01*
X15850000Y-2500000D02*
X15850000Y-2000000D01*
X14704577Y-4293872D02*
X14711398Y-4290526D01*
X14682588Y-3099565D02*
X14690097Y-3098415D01*
X13854668Y-4250998D02*
X13857665Y-4257980D01*
X14991970Y-4292285D02*
X14998952Y-4295281D01*
X14954668Y-3948902D02*
X14953439Y-3952498D01*
X14973327Y-3320590D02*
X14970640Y-3323277D01*
X13906201Y-4297556D02*
X13913643Y-4299085D01*
X15814672Y-3088598D02*
X15820908Y-3084258D01*
X15847606Y-3956151D02*
X15846560Y-3952498D01*
X15838648Y-3064622D02*
X15842335Y-3057979D01*
X15013643Y-3300815D02*
X15009903Y-3301485D01*
X14750000Y-2774950D02*
X14749615Y-2767362D01*
X15811398Y-4290526D02*
X15817845Y-4286507D01*
X14400000Y-2699985D02*
X14400000Y-2500000D01*
X15850000Y-4224950D02*
X15850000Y-3974950D01*
X15006201Y-2702344D02*
X14998952Y-2704619D01*
X14750000Y-3974950D02*
X14749615Y-3967362D01*
X14400000Y-3899985D02*
X14400000Y-3799950D01*
X15838648Y-2735278D02*
X15836557Y-2732105D01*
X15831907Y-3926097D02*
X15826672Y-3920590D01*
X15300000Y-3099950D02*
X15300000Y-3199950D01*
X13850385Y-3032538D02*
X13850865Y-3036307D01*
X13859424Y-2738552D02*
X13857665Y-2741920D01*
X15840576Y-3661348D02*
X15843922Y-3654527D01*
X15831907Y-3326097D02*
X15829359Y-3323277D01*
X14746560Y-4247402D02*
X14748465Y-4240047D01*
X13913643Y-3900815D02*
X13909903Y-3901485D01*
X14400000Y-3699950D02*
X14675000Y-3699950D01*
X14979092Y-3915642D02*
X14973327Y-3920590D01*
X14740576Y-2738552D02*
X14738648Y-2735278D01*
X14979092Y-2715642D02*
X14973327Y-2720591D01*
X15300000Y-4499950D02*
X14400000Y-4499950D01*
X15845331Y-3650998D02*
X15847606Y-3643749D01*
X14956078Y-3654527D02*
X14959424Y-3661348D01*
X15782588Y-3699565D02*
X15790097Y-3698415D01*
X14957665Y-2741920D02*
X14956078Y-2745373D01*
X14726672Y-4279309D02*
X14731907Y-4273803D01*
X15849904Y-3628749D02*
X15850000Y-3624950D01*
X14726672Y-3920590D02*
X14723853Y-3918043D01*
X13853439Y-3047402D02*
X13856078Y-3054527D01*
X14746560Y-2752498D02*
X14743922Y-2745373D01*
X13853439Y-4247402D02*
X13854668Y-4250998D01*
X14745331Y-3650998D02*
X14746560Y-3647402D01*
X13898952Y-3095281D02*
X13902548Y-3096510D01*
X14731907Y-3673803D02*
X14736557Y-3667795D01*
X13863443Y-4267795D02*
X13868093Y-4273803D01*
X14711398Y-4290526D02*
X14717845Y-4286507D01*
X14736557Y-4267795D02*
X14740576Y-4261348D01*
X14723853Y-2718043D02*
X14720908Y-2715642D01*
X13850865Y-3036307D02*
X13851535Y-3040047D01*
X15850000Y-3024950D02*
X15850000Y-2774950D01*
X13850000Y-3974950D02*
X13850000Y-4224950D01*
X15500000Y-3299985D02*
X15500000Y-3199950D01*
X15850000Y-3974950D02*
X15849904Y-3971151D01*
X14748465Y-3959853D02*
X14746560Y-3952498D01*
X14746560Y-3047402D02*
X14748465Y-3040047D01*
X14968093Y-2726097D02*
X14963443Y-2732105D01*
X14746560Y-3647402D02*
X14748465Y-3640047D01*
X13850385Y-4232538D02*
X13850865Y-4236307D01*
X15826672Y-3920590D02*
X15820908Y-3915642D01*
X13882155Y-2713393D02*
X13879092Y-2715642D01*
X14743922Y-3345373D02*
X14740576Y-3338552D01*
X13850000Y-3024950D02*
X13850385Y-3032538D01*
X13925000Y-3099950D02*
X14200000Y-3099950D01*
X14959424Y-3938552D02*
X14957665Y-3941920D01*
X13851535Y-3640047D02*
X13853439Y-3647402D01*
X14738648Y-2735278D02*
X14734308Y-2729042D01*
X15849135Y-3963593D02*
X15847606Y-3956151D01*
X15300000Y-3300011D02*
X15021201Y-3300046D01*
X14749615Y-4232538D02*
X14750000Y-4224950D01*
X15025000Y-4299950D02*
X15300000Y-4299950D01*
X15025000Y-3099950D02*
X15300000Y-3099950D01*
X14961352Y-3664622D02*
X14963443Y-3667795D01*
X14959424Y-2738552D02*
X14957665Y-2741920D01*
X13885328Y-3311302D02*
X13879092Y-3315642D01*
X13857665Y-3941920D02*
X13854668Y-3948902D01*
X14400000Y-3199950D02*
X14400000Y-3099950D01*
X14963443Y-3067795D02*
X14968093Y-3073803D01*
X14749615Y-3967362D02*
X14749135Y-3963593D01*
X14200000Y-4499950D02*
X13850000Y-4499950D01*
X13868093Y-3073803D02*
X13873327Y-3079309D01*
X15831907Y-2726097D02*
X15826672Y-2720591D01*
X15843922Y-3345373D02*
X15840576Y-3338552D01*
X13850000Y-3374950D02*
X13850000Y-3624950D01*
X13879092Y-4284258D02*
X13882155Y-4286507D01*
X14711398Y-3909374D02*
X14708029Y-3907615D01*
X15849904Y-3371151D02*
X15849135Y-3363593D01*
X13902548Y-3696510D02*
X13909903Y-3698415D01*
X14950000Y-2774950D02*
X14950000Y-3024950D01*
X14976147Y-3681857D02*
X14979092Y-3684258D01*
X14690097Y-3698415D02*
X14697452Y-3696510D01*
X14200000Y-3900011D02*
X13921201Y-3900046D01*
X13853439Y-2752498D02*
X13851535Y-2759853D01*
X14686357Y-2700815D02*
X14678799Y-2700046D01*
X14953439Y-3647402D02*
X14956078Y-3654527D01*
X14743922Y-2745373D02*
X14740576Y-2738552D01*
X15849135Y-3636307D02*
X15849904Y-3628749D01*
X15823853Y-4281857D02*
X15829359Y-4276623D01*
X14956078Y-3054527D02*
X14959424Y-3061348D01*
X14740576Y-3061348D02*
X14743922Y-3054527D01*
X13863443Y-2732105D02*
X13859424Y-2738552D01*
X15838648Y-3335278D02*
X15836557Y-3332105D01*
X14742335Y-4257980D02*
X14745331Y-4250998D01*
X13882155Y-4286507D02*
X13888602Y-4290526D01*
X15831907Y-3673803D02*
X15836557Y-3667795D01*
X13921201Y-3300046D02*
X13917412Y-3300335D01*
X14678799Y-3900046D02*
X14675000Y-3899950D01*
X15838648Y-4264622D02*
X15842335Y-4257980D01*
X14200000Y-3699950D02*
X14200000Y-3799950D01*
X14963443Y-4267795D02*
X14968093Y-4273803D01*
X13853439Y-3352498D02*
X13851535Y-3359853D01*
X15845331Y-3050998D02*
X15847606Y-3043749D01*
X14950865Y-2763593D02*
X14950385Y-2767362D01*
X15847606Y-3043749D02*
X15849135Y-3036307D01*
X14714672Y-3088598D02*
X14720908Y-3084258D01*
X14682588Y-4299565D02*
X14690097Y-4298415D01*
X14950385Y-3367362D02*
X14950000Y-3374950D01*
X15009903Y-3901485D02*
X15006201Y-3902344D01*
X15804577Y-3693872D02*
X15811398Y-3690526D01*
X15843922Y-3654527D02*
X15845331Y-3650998D01*
X14697452Y-4296510D02*
X14704577Y-4293872D01*
X13879092Y-3084258D02*
X13882155Y-3086507D01*
X14998952Y-2704619D02*
X14991970Y-2707615D01*
X13850865Y-2763593D02*
X13850385Y-2767362D01*
X14970640Y-2723277D02*
X14968093Y-2726097D01*
X14950865Y-4236307D02*
X14951535Y-4240047D01*
X14959424Y-4261348D02*
X14963443Y-4267795D01*
X14963443Y-3667795D02*
X14968093Y-3673803D01*
X15790097Y-3098415D02*
X15793799Y-3097556D01*
X13859424Y-3061348D02*
X13861352Y-3064622D01*
X14749135Y-2763593D02*
X14748465Y-2759853D01*
X13863443Y-3067795D02*
X13868093Y-3073803D01*
X13850000Y-4224950D02*
X13850385Y-4232538D01*
X15834308Y-4270858D02*
X15838648Y-4264622D01*
X14985328Y-3688598D02*
X14988602Y-3690526D01*
X13891970Y-2707615D02*
X13888602Y-2709374D01*
X14690097Y-4298415D02*
X14697452Y-4296510D01*
X15814672Y-3311302D02*
X15808029Y-3307615D01*
X13868093Y-3926097D02*
X13863443Y-3932105D01*
X14708029Y-3092285D02*
X14714672Y-3088598D01*
X14740576Y-3338552D02*
X14738648Y-3335278D01*
X15797452Y-2703390D02*
X15793799Y-2702344D01*
X14717845Y-4286507D02*
X14720908Y-4284258D01*
X13879092Y-3315642D02*
X13873327Y-3320590D01*
X13873327Y-3920590D02*
X13870640Y-3923277D01*
X15021201Y-4299854D02*
X15025000Y-4299950D01*
X13873327Y-2720591D02*
X13870640Y-2723277D01*
X15829359Y-3076622D02*
X15834308Y-3070858D01*
X13850000Y-4999950D02*
X15850000Y-4999950D01*
X15013643Y-4299085D02*
X15021201Y-4299854D01*
X14697452Y-3303389D02*
X14690097Y-3301485D01*
X14950000Y-3624950D02*
X14950385Y-3632538D01*
X13917412Y-3699565D02*
X13925000Y-3699950D01*
X15850000Y-4999950D02*
X15850000Y-4499950D01*
X13868093Y-4273803D02*
X13873327Y-4279309D01*
X14982155Y-3913393D02*
X14979092Y-3915642D01*
X14678799Y-3300046D02*
X14675000Y-3299950D01*
X15797452Y-3903389D02*
X15793799Y-3902344D01*
X13882155Y-3086507D02*
X13888602Y-3090526D01*
X14995423Y-3093872D02*
X15002548Y-3096510D01*
X15840576Y-3338552D02*
X15838648Y-3335278D01*
X14748465Y-2759853D02*
X14746560Y-2752498D01*
X13853439Y-3952498D02*
X13851535Y-3959853D01*
X14711398Y-3690526D02*
X14714672Y-3688598D01*
X14951535Y-3640047D02*
X14953439Y-3647402D01*
X14951535Y-2759853D02*
X14950865Y-2763593D01*
X14957665Y-4257980D02*
X14959424Y-4261348D01*
X15829359Y-3323277D02*
X15823853Y-3318043D01*
X14998952Y-4295281D02*
X15002548Y-4296510D01*
X14951535Y-3359853D02*
X14950865Y-3363593D01*
X15849904Y-2771151D02*
X15849135Y-2763593D01*
X15826672Y-3679309D02*
X15831907Y-3673803D01*
X15300000Y-3199950D02*
X15300000Y-3300011D01*
X14985328Y-3088598D02*
X14988602Y-3090526D01*
X13856078Y-3054527D02*
X13859424Y-3061348D01*
X15826672Y-2720591D02*
X15820908Y-2715642D01*
X13850000Y-4499950D02*
X13850000Y-4999950D01*
X15500000Y-4499950D02*
X15500000Y-4299950D01*
X15775000Y-2699950D02*
X15500000Y-2699985D01*
X14400000Y-2500000D02*
X15300000Y-2500000D01*
X15817845Y-3913393D02*
X15811398Y-3909374D01*
X14998952Y-3304618D02*
X14991970Y-3307615D01*
X15793799Y-3097556D02*
X15801048Y-3095281D01*
X14708029Y-2707615D02*
X14701048Y-2704619D01*
X14950000Y-3374950D02*
X14950000Y-3624950D01*
X15793799Y-4297556D02*
X15801048Y-4295281D01*
X15021201Y-3099854D02*
X15025000Y-3099950D01*
X13909903Y-3698415D02*
X13913643Y-3699085D01*
X14400000Y-4499950D02*
X14400000Y-4299950D01*
X15782588Y-3099565D02*
X15790097Y-3098415D01*
X15786357Y-3900815D02*
X15778799Y-3900046D01*
X15013643Y-3099085D02*
X15021201Y-3099854D01*
X14686357Y-3900815D02*
X14678799Y-3900046D01*
X14738648Y-3335278D02*
X14734308Y-3329042D01*
X14957665Y-3341920D02*
X14956078Y-3345373D01*
X13902548Y-4296510D02*
X13906201Y-4297556D01*
X15850000Y-2000000D02*
X13850000Y-2000000D01*
X15500000Y-3199950D02*
X15500000Y-3099950D01*
X15009903Y-3098415D02*
X15013643Y-3099085D01*
X14400000Y-3799950D02*
X14400000Y-3699950D01*
X14675000Y-3299950D02*
X14400000Y-3299985D01*
X14985328Y-3311302D02*
X14979092Y-3315642D01*
X15843922Y-2745373D02*
X15840576Y-2738552D01*
X14985328Y-2711302D02*
X14979092Y-2715642D01*
X13863443Y-3332105D02*
X13859424Y-3338552D01*
X14748465Y-3640047D02*
X14749615Y-3632538D01*
X15842335Y-4257980D02*
X15845331Y-4250998D01*
X14714672Y-3688598D02*
X14720908Y-3684258D01*
X13851535Y-4240047D02*
X13853439Y-4247402D01*
X14973327Y-3679309D02*
X14976147Y-3681857D01*
X13906201Y-3902344D02*
X13898952Y-3904618D01*
X13888602Y-3090526D02*
X13891970Y-3092285D01*
X14690097Y-2701485D02*
X14686357Y-2700815D01*
X14748465Y-3359853D02*
X14746560Y-3352498D01*
X14976147Y-3081857D02*
X14979092Y-3084258D01*
X14950385Y-3632538D02*
X14950865Y-3636307D01*
X15849904Y-4228749D02*
X15850000Y-4224950D01*
X14682588Y-3699565D02*
X14690097Y-3698415D01*
X13885328Y-3688598D02*
X13888602Y-3690526D01*
X15850000Y-4499950D02*
X15500000Y-4499950D01*
X14726672Y-3320590D02*
X14723853Y-3318043D01*
X15006201Y-4297556D02*
X15013643Y-4299085D01*
X14745331Y-3050998D02*
X14746560Y-3047402D01*
X13850385Y-3367362D02*
X13850000Y-3374950D01*
X15845331Y-2748902D02*
X15843922Y-2745373D01*
X14953439Y-3047402D02*
X14956078Y-3054527D01*
X15797452Y-3696510D02*
X15804577Y-3693872D01*
X13898952Y-4295281D02*
X13902548Y-4296510D01*
X13879092Y-3915642D02*
X13873327Y-3920590D01*
X14742335Y-3941920D02*
X14738648Y-3935278D01*
X14731907Y-4273803D02*
X14736557Y-4267795D01*
X15775000Y-3899950D02*
X15500000Y-3899985D01*
X15836557Y-3332105D02*
X15831907Y-3326097D01*
X15820908Y-2715642D02*
X15817845Y-2713393D01*
X15811398Y-3909374D02*
X15808029Y-3907615D01*
X14731907Y-3926097D02*
X14726672Y-3920590D01*
X15849135Y-4236307D02*
X15849904Y-4228749D01*
X13925000Y-4299950D02*
X14200000Y-4299950D01*
X14701048Y-3904618D02*
X14697452Y-3903389D01*
X14957665Y-3941920D02*
X14954668Y-3948902D01*
X14991970Y-2707615D02*
X14988602Y-2709374D01*
X15847606Y-2756151D02*
X15845331Y-2748902D01*
X13856078Y-3345373D02*
X13853439Y-3352498D01*
X14968093Y-3073803D02*
X14973327Y-3079309D01*
X14950865Y-3363593D02*
X14950385Y-3367362D01*
X14723853Y-3918043D02*
X14717845Y-3913393D01*
X15006201Y-3902344D02*
X14998952Y-3904618D01*
X13850385Y-2767362D02*
X13850000Y-2774950D01*
X15775000Y-3699950D02*
X15782588Y-3699565D01*
X13870640Y-2723277D02*
X13868093Y-2726097D01*
X15300000Y-2700011D02*
X15021201Y-2700046D01*
X13906201Y-2702344D02*
X13898952Y-2704619D01*
X14200000Y-3799950D02*
X14200000Y-3900011D01*
X15814672Y-2711302D02*
X15808029Y-2707615D01*
X14988602Y-3690526D02*
X14995423Y-3693872D01*
X14697452Y-2703390D02*
X14690097Y-2701485D01*
X15801048Y-3095281D02*
X15808029Y-3092285D01*
X14746560Y-3952498D02*
X14745331Y-3948902D01*
X14678799Y-2700046D02*
X14675000Y-2699950D01*
X15846560Y-3952498D02*
X15845331Y-3948902D01*
X13925000Y-3699950D02*
X14200000Y-3699950D01*
X14704577Y-3693872D02*
X14711398Y-3690526D01*
X14726672Y-3679309D02*
X14731907Y-3673803D01*
X14968093Y-4273803D02*
X14973327Y-4279309D01*
X13913643Y-3699085D02*
X13917412Y-3699565D01*
X13921201Y-3900046D02*
X13913643Y-3900815D01*
X14675000Y-3899950D02*
X14400000Y-3899985D01*
X15778799Y-3900046D02*
X15775000Y-3899950D01*
X14750000Y-3374950D02*
X14749615Y-3367362D01*
X15849135Y-3363593D02*
X15847606Y-3356151D01*
X14995423Y-3693872D02*
X15002548Y-3696510D01*
X14963443Y-3332105D02*
X14959424Y-3338552D01*
X15793799Y-3902344D02*
X15786357Y-3900815D01*
X15786357Y-2700815D02*
X15782588Y-2700335D01*
X15817845Y-2713393D02*
X15814672Y-2711302D01*
X14746560Y-3352498D02*
X14743922Y-3345373D01*
X14988602Y-2709374D02*
X14985328Y-2711302D01*
X15820908Y-3084258D02*
X15826672Y-3079309D01*
X15847606Y-4243749D02*
X15849135Y-4236307D01*
X13891970Y-3092285D02*
X13898952Y-3095281D01*
X14953439Y-3352498D02*
X14951535Y-3359853D01*
X14708029Y-3907615D02*
X14701048Y-3904618D01*
X13913643Y-3099085D02*
X13921201Y-3099854D01*
X13888602Y-3690526D02*
X13895423Y-3693872D01*
X14973327Y-3079309D02*
X14976147Y-3081857D01*
X13850865Y-3963593D02*
X13850385Y-3967362D01*
X15009903Y-3301485D02*
X15002548Y-3303389D01*
X13888602Y-4290526D02*
X13891970Y-4292285D01*
X15840576Y-2738552D02*
X15838648Y-2735278D01*
X15814672Y-3688598D02*
X15820908Y-3684258D01*
X13851535Y-3359853D02*
X13850865Y-3363593D01*
X15500000Y-4299950D02*
X15775000Y-4299950D01*
X13882155Y-3913393D02*
X13879092Y-3915642D01*
X15840576Y-3938552D02*
X15836557Y-3932105D01*
X14400000Y-4299950D02*
X14675000Y-4299950D01*
X15500000Y-3099950D02*
X15775000Y-3099950D01*
X13913643Y-2700815D02*
X13909903Y-2701485D01*
X14991970Y-3307615D02*
X14988602Y-3309374D01*
X13857665Y-3341920D02*
X13856078Y-3345373D01*
X14979092Y-4284258D02*
X14982155Y-4286507D01*
X14988602Y-3090526D02*
X14995423Y-3093872D01*
X14951535Y-4240047D02*
X14953439Y-4247402D01*
X14748465Y-4240047D02*
X14749615Y-4232538D01*
X14701048Y-3095281D02*
X14708029Y-3092285D01*
X15842335Y-3057979D02*
X15845331Y-3050998D01*
X15782588Y-3300335D02*
X15775000Y-3299950D01*
X15002548Y-3096510D02*
X15009903Y-3098415D01*
X14959424Y-3061348D02*
X14961352Y-3064622D01*
X15786357Y-3300815D02*
X15782588Y-3300335D01*
X14968093Y-3926097D02*
X14963443Y-3932105D01*
X14950865Y-3636307D02*
X14951535Y-3640047D01*
X13895423Y-3693872D02*
X13902548Y-3696510D01*
X15782588Y-4299565D02*
X15786357Y-4299085D01*
X13909903Y-2701485D02*
X13906201Y-2702344D01*
X13859424Y-3938552D02*
X13857665Y-3941920D01*
X14748465Y-3040047D02*
X14749615Y-3032538D01*
X15808029Y-3092285D02*
X15814672Y-3088598D01*
X15826672Y-3079309D02*
X15829359Y-3076622D01*
X14950385Y-4232538D02*
X14950865Y-4236307D01*
X14950385Y-3032538D02*
X14950865Y-3036307D01*
X13850865Y-3636307D02*
X13851535Y-3640047D01*
X15820908Y-3684258D02*
X15826672Y-3679309D01*
X13850385Y-3632538D02*
X13850865Y-3636307D01*
X15300000Y-2500000D02*
X15300000Y-2700011D01*
X14743922Y-3054527D02*
X14745331Y-3050998D01*
X14749615Y-2767362D02*
X14749135Y-2763593D01*
X15811398Y-3690526D02*
X15814672Y-3688598D01*
X13891970Y-4292285D02*
X13898952Y-4295281D01*
X14745331Y-4250998D02*
X14746560Y-4247402D01*
X14714672Y-3311302D02*
X14711398Y-3309374D01*
X15842335Y-3941920D02*
X15840576Y-3938552D01*
X15790097Y-3698415D02*
X15797452Y-3696510D01*
X14690097Y-3301485D02*
X14686357Y-3300815D01*
X15823853Y-3318043D02*
X15817845Y-3313393D01*
X14697452Y-3903389D02*
X14693799Y-3902344D01*
X14720908Y-3084258D02*
X14726672Y-3079309D01*
X14686357Y-3300815D02*
X14678799Y-3300046D01*
X15845331Y-3948902D02*
X15842335Y-3941920D01*
X14690097Y-3098415D02*
X14697452Y-3096510D01*
X15500000Y-3899985D02*
X15500000Y-3799950D01*
X14675000Y-2699950D02*
X14400000Y-2699985D01*
X13921201Y-3099854D02*
X13925000Y-3099950D01*
X14950000Y-4224950D02*
X14950385Y-4232538D01*
X14731907Y-3073803D02*
X14736557Y-3067795D01*
X14968093Y-3326097D02*
X14963443Y-3332105D01*
X15849904Y-3028749D02*
X15850000Y-3024950D01*
X14988602Y-3909374D02*
X14982155Y-3913393D01*
X14982155Y-4286507D02*
X14988602Y-4290526D01*
X14731907Y-2726097D02*
X14726672Y-2720591D01*
X14998952Y-3904618D02*
X14995423Y-3906028D01*
X15808029Y-3307615D02*
X15801048Y-3304618D01*
X14400000Y-3299985D02*
X14400000Y-3199950D01*
X13902548Y-3303389D02*
X13898952Y-3304618D01*
X15002548Y-3696510D02*
X15009903Y-3698415D01*
X13888602Y-3909374D02*
X13882155Y-3913393D01*
X14726672Y-3079309D02*
X14731907Y-3073803D01*
X14968093Y-3673803D02*
X14973327Y-3679309D01*
X15845331Y-3348902D02*
X15843922Y-3345373D01*
X14959424Y-3338552D02*
X14957665Y-3341920D01*
X14711398Y-3309374D02*
X14704577Y-3306028D01*
X14749135Y-3963593D02*
X14748465Y-3959853D01*
X14697452Y-3096510D02*
X14701048Y-3095281D01*
X13850000Y-2000000D02*
X13850000Y-2500000D01*
X14979092Y-3315642D02*
X14973327Y-3320590D01*
X15793799Y-2702344D02*
X15786357Y-2700815D01*
X15801048Y-3304618D02*
X15797452Y-3303389D01*
X14950385Y-3967362D02*
X14950000Y-3974950D01*
X15500000Y-3799950D02*
X15500000Y-3699950D01*
X14749615Y-3632538D02*
X14750000Y-3624950D01*
X14750000Y-4224950D02*
X14750000Y-3974950D01*
X13868093Y-3673803D02*
X13873327Y-3679309D01*
X14995423Y-3906028D02*
X14988602Y-3909374D01*
X15002548Y-3303389D02*
X14998952Y-3304618D01*
X13921201Y-2700046D02*
X13913643Y-2700815D01*
X15849135Y-2763593D02*
X15847606Y-2756151D01*
X13898952Y-2704619D02*
X13891970Y-2707615D01*
X14675000Y-4299950D02*
X14682588Y-4299565D01*
X14714672Y-2711302D02*
X14708029Y-2707615D01*
X13861352Y-3664622D02*
X13863443Y-3667795D01*
X13850000Y-3624950D02*
X13850385Y-3632538D01*
X14697452Y-3696510D02*
X14704577Y-3693872D01*
X15300000Y-3699950D02*
X15300000Y-3799950D01*
X15817845Y-3313393D02*
X15814672Y-3311302D01*
X14736557Y-3067795D02*
X14740576Y-3061348D01*
X15021201Y-2700046D02*
X15013643Y-2700815D01*
X15775000Y-4299950D02*
X15782588Y-4299565D01*
X15300000Y-3900011D02*
X15021201Y-3900046D01*
X13909903Y-3098415D02*
X13913643Y-3099085D01*
X14726672Y-2720591D02*
X14723853Y-2718043D01*
X15836557Y-3667795D02*
X15840576Y-3661348D01*
X13873327Y-4279309D02*
X13879092Y-4284258D01*
X14734308Y-2729042D02*
X14731907Y-2726097D01*
X15801048Y-2704619D02*
X15797452Y-2703390D01*
X15021201Y-3900046D02*
X15013643Y-3900815D01*
X13891970Y-3907615D02*
X13888602Y-3909374D01*
X15834308Y-3070858D02*
X15838648Y-3064622D01*
X15790097Y-3301485D02*
X15786357Y-3300815D01*
X14956078Y-2745373D02*
X14953439Y-2752498D01*
X15850000Y-3624950D02*
X15850000Y-3374950D01*
X14979092Y-3684258D02*
X14985328Y-3688598D01*
X13850865Y-4236307D02*
X13851535Y-4240047D01*
X13850000Y-2774950D02*
X13850000Y-3024950D01*
X13861352Y-3064622D02*
X13863443Y-3067795D01*
X13859424Y-3661348D02*
X13861352Y-3664622D01*
X14720908Y-2715642D02*
X14714672Y-2711302D01*
X14200000Y-3199950D02*
X14200000Y-3300011D01*
X13857665Y-2741920D02*
X13856078Y-2745373D01*
X13876147Y-3681857D02*
X13879092Y-3684258D01*
X13859424Y-3338552D02*
X13857665Y-3341920D01*
X15797452Y-3303389D02*
X15790097Y-3301485D01*
X14959424Y-3661348D02*
X14961352Y-3664622D01*
X15500000Y-3699950D02*
X15775000Y-3699950D01*
X15829359Y-4276623D02*
X15834308Y-4270858D01*
X14720908Y-4284258D02*
X14726672Y-4279309D01*
X14750000Y-3624950D02*
X14750000Y-3374950D01*
X13888602Y-2709374D02*
X13882155Y-2713393D01*
X13891970Y-3307615D02*
X13888602Y-3309374D01*
X14740576Y-4261348D02*
X14742335Y-4257980D01*
X15808029Y-4292285D02*
X15811398Y-4290526D01*
X15775000Y-3299950D02*
X15500000Y-3299985D01*
X13854668Y-3948902D02*
X13853439Y-3952498D01*
X13902548Y-3096510D02*
X13909903Y-3098415D01*
X15775000Y-3099950D02*
X15782588Y-3099565D01*
X14973327Y-3920590D02*
X14970640Y-3923277D01*
X13868093Y-2726097D02*
X13863443Y-2732105D01*
X13870640Y-3923277D02*
X13868093Y-3926097D01*
X14950385Y-2767362D02*
X14950000Y-2774950D01*
X13857665Y-4257980D02*
X13859424Y-4261348D01*
X13851535Y-3959853D02*
X13850865Y-3963593D01*
X15850000Y-3374950D02*
X15849904Y-3371151D01*
X15850000Y-2774950D02*
X15849904Y-2771151D01*
X15817845Y-4286507D02*
X15823853Y-4281857D01*
X14953439Y-3952498D02*
X14951535Y-3959853D01*
X15847606Y-3356151D02*
X15845331Y-3348902D01*
X13863443Y-3667795D02*
X13868093Y-3673803D01*
X15500000Y-2699985D02*
X15500000Y-2500000D01*
X13863443Y-3932105D02*
X13859424Y-3938552D01*
X15801048Y-4295281D02*
X15808029Y-4292285D01*
X14973327Y-2720591D02*
X14970640Y-2723277D01*
X13856078Y-3654527D02*
X13859424Y-3661348D01*
X15849135Y-3036307D02*
X15849904Y-3028749D01*
X15017412Y-3699565D02*
X15025000Y-3699950D01*
X14734308Y-3329042D02*
X14731907Y-3326097D01*
X14400000Y-3099950D02*
X14675000Y-3099950D01*
X15808029Y-2707615D02*
X15801048Y-2704619D01*
X14701048Y-2704619D02*
X14697452Y-2703390D01*
X14963443Y-3932105D02*
X14959424Y-3938552D01*
X14720908Y-3315642D02*
X14714672Y-3311302D01*
X15808029Y-3907615D02*
X15801048Y-3904618D01*
X15782588Y-2700335D02*
X15775000Y-2699950D01*
X15836557Y-3932105D02*
X15831907Y-3926097D01*
X14988602Y-3309374D02*
X14985328Y-3311302D01*
X14749135Y-3363593D02*
X14748465Y-3359853D01*
X14704577Y-3306028D02*
X14697452Y-3303389D01*
X13873327Y-3679309D02*
X13876147Y-3681857D01*
X14973327Y-4279309D02*
X14979092Y-4284258D01*
X13898952Y-3904618D02*
X13891970Y-3907615D01*
X14950865Y-3963593D02*
X14950385Y-3967362D01*
X14750000Y-3024950D02*
X14750000Y-2774950D01*
X14200000Y-3300011D02*
X13921201Y-3300046D01*
X15847606Y-3643749D02*
X15849135Y-3636307D01*
X13868093Y-3326097D02*
X13863443Y-3332105D01*
X14200000Y-2500000D02*
X14200000Y-2700011D01*
X14734308Y-3929042D02*
X14731907Y-3926097D01*
X13909903Y-3901485D02*
X13906201Y-3902344D01*
X14970640Y-3323277D02*
X14968093Y-3326097D01*
X14200000Y-4299950D02*
X14200000Y-4499950D01*
X13873327Y-3079309D02*
X13879092Y-3084258D01*
X13913643Y-4299085D02*
X13921201Y-4299854D01*
X14743922Y-3654527D02*
X14745331Y-3650998D01*
X14951535Y-3040047D02*
X14953439Y-3047402D01*
X14720908Y-3684258D02*
X14726672Y-3679309D01*
X14956078Y-3345373D02*
X14953439Y-3352498D01*
X14979092Y-3084258D02*
X14985328Y-3088598D01*
X13879092Y-2715642D02*
X13873327Y-2720591D01*
X14200000Y-3099950D02*
X14200000Y-3199950D01*
X14951535Y-3959853D02*
X14950865Y-3963593D01*
D11*
D10*
X13895000Y-2744950D02*
X13965000Y-2814950D01*
X13965000Y-2744950D02*
X13895000Y-2814950D01*
X13895000Y-2984950D02*
X13965000Y-3054950D01*
X13965000Y-2984950D02*
X13895000Y-3054950D01*
X13895000Y-3344950D02*
X13965000Y-3414950D01*
X13965000Y-3344950D02*
X13895000Y-3414950D01*
X13895000Y-3584950D02*
X13965000Y-3654950D01*
X13965000Y-3584950D02*
X13895000Y-3654950D01*
X13895000Y-3944950D02*
X13965000Y-4014950D01*
X13965000Y-3944950D02*
X13895000Y-4014950D01*
X13895000Y-4184950D02*
X13965000Y-4254950D01*
X13965000Y-4184950D02*
X13895000Y-4254950D01*
X14635000Y-2744950D02*
X14705000Y-2814950D01*
X14705000Y-2744950D02*
X14635000Y-2814950D01*
X14635000Y-2984950D02*
X14705000Y-3054950D01*
X14705000Y-2984950D02*
X14635000Y-3054950D01*
X14635000Y-3344950D02*
X14705000Y-3414950D01*
X14705000Y-3344950D02*
X14635000Y-3414950D01*
X14635000Y-3584950D02*
X14705000Y-3654950D01*
X14705000Y-3584950D02*
X14635000Y-3654950D01*
X14635000Y-3944950D02*
X14705000Y-4014950D01*
X14705000Y-3944950D02*
X14635000Y-4014950D01*
X14635000Y-4184950D02*
X14705000Y-4254950D01*
X14705000Y-4184950D02*
X14635000Y-4254950D01*
X14995000Y-2744950D02*
X15065000Y-2814950D01*
X15065000Y-2744950D02*
X14995000Y-2814950D01*
X14995000Y-2984950D02*
X15065000Y-3054950D01*
X15065000Y-2984950D02*
X14995000Y-3054950D01*
X14995000Y-3344950D02*
X15065000Y-3414950D01*
X15065000Y-3344950D02*
X14995000Y-3414950D01*
X14995000Y-3584950D02*
X15065000Y-3654950D01*
X15065000Y-3584950D02*
X14995000Y-3654950D01*
X14995000Y-3944950D02*
X15065000Y-4014950D01*
X15065000Y-3944950D02*
X14995000Y-4014950D01*
X14995000Y-4184950D02*
X15065000Y-4254950D01*
X15065000Y-4184950D02*
X14995000Y-4254950D01*
X15735000Y-2744950D02*
X15805000Y-2814950D01*
X15805000Y-2744950D02*
X15735000Y-2814950D01*
X15735000Y-2984950D02*
X15805000Y-3054950D01*
X15805000Y-2984950D02*
X15735000Y-3054950D01*
X15735000Y-3344950D02*
X15805000Y-3414950D01*
X15805000Y-3344950D02*
X15735000Y-3414950D01*
X15735000Y-3584950D02*
X15805000Y-3654950D01*
X15805000Y-3584950D02*
X15735000Y-3654950D01*
X15735000Y-3944950D02*
X15805000Y-4014950D01*
X15805000Y-3944950D02*
X15735000Y-4014950D01*
X15735000Y-4184950D02*
X15805000Y-4254950D01*
X15805000Y-4184950D02*
X15735000Y-4254950D01*
D11*
X14105777Y-5316434D02*
X14105777Y-5116434D01*
X14105777Y-5116434D02*
X14153396Y-5116434D01*
X14153396Y-5116434D02*
X14181967Y-5125958D01*
X14181967Y-5125958D02*
X14201015Y-5145005D01*
X14201015Y-5145005D02*
X14210539Y-5164053D01*
X14210539Y-5164053D02*
X14220062Y-5202148D01*
X14220062Y-5202148D02*
X14220062Y-5230720D01*
X14220062Y-5230720D02*
X14210539Y-5268815D01*
X14210539Y-5268815D02*
X14201015Y-5287862D01*
X14201015Y-5287862D02*
X14181967Y-5306910D01*
X14181967Y-5306910D02*
X14153396Y-5316434D01*
X14153396Y-5316434D02*
X14105777Y-5316434D01*
X14305777Y-5316434D02*
X14305777Y-5183100D01*
X14305777Y-5221196D02*
X14315301Y-5202148D01*
X14315301Y-5202148D02*
X14324824Y-5192624D01*
X14324824Y-5192624D02*
X14343872Y-5183100D01*
X14343872Y-5183100D02*
X14362920Y-5183100D01*
X14429586Y-5316434D02*
X14429586Y-5183100D01*
X14429586Y-5116434D02*
X14420062Y-5125958D01*
X14420062Y-5125958D02*
X14429586Y-5135481D01*
X14429586Y-5135481D02*
X14439110Y-5125958D01*
X14439110Y-5125958D02*
X14429586Y-5116434D01*
X14429586Y-5116434D02*
X14429586Y-5135481D01*
X14553396Y-5316434D02*
X14534348Y-5306910D01*
X14534348Y-5306910D02*
X14524824Y-5287862D01*
X14524824Y-5287862D02*
X14524824Y-5116434D01*
X14658158Y-5316434D02*
X14639110Y-5306910D01*
X14639110Y-5306910D02*
X14629586Y-5287862D01*
X14629586Y-5287862D02*
X14629586Y-5116434D01*
X14886729Y-5316434D02*
X14886729Y-5116434D01*
X14886729Y-5116434D02*
X14953396Y-5259291D01*
X14953396Y-5259291D02*
X15020062Y-5116434D01*
X15020062Y-5116434D02*
X15020062Y-5316434D01*
X15201015Y-5316434D02*
X15201015Y-5211672D01*
X15201015Y-5211672D02*
X15191491Y-5192624D01*
X15191491Y-5192624D02*
X15172443Y-5183100D01*
X15172443Y-5183100D02*
X15134348Y-5183100D01*
X15134348Y-5183100D02*
X15115301Y-5192624D01*
X15201015Y-5306910D02*
X15181967Y-5316434D01*
X15181967Y-5316434D02*
X15134348Y-5316434D01*
X15134348Y-5316434D02*
X15115301Y-5306910D01*
X15115301Y-5306910D02*
X15105777Y-5287862D01*
X15105777Y-5287862D02*
X15105777Y-5268815D01*
X15105777Y-5268815D02*
X15115301Y-5249767D01*
X15115301Y-5249767D02*
X15134348Y-5240243D01*
X15134348Y-5240243D02*
X15181967Y-5240243D01*
X15181967Y-5240243D02*
X15201015Y-5230720D01*
X15296253Y-5183100D02*
X15296253Y-5383100D01*
X15296253Y-5192624D02*
X15315301Y-5183100D01*
X15315301Y-5183100D02*
X15353396Y-5183100D01*
X15353396Y-5183100D02*
X15372443Y-5192624D01*
X15372443Y-5192624D02*
X15381967Y-5202148D01*
X15381967Y-5202148D02*
X15391491Y-5221196D01*
X15391491Y-5221196D02*
X15391491Y-5278339D01*
X15391491Y-5278339D02*
X15381967Y-5297386D01*
X15381967Y-5297386D02*
X15372443Y-5306910D01*
X15372443Y-5306910D02*
X15353396Y-5316434D01*
X15353396Y-5316434D02*
X15315301Y-5316434D01*
X15315301Y-5316434D02*
X15296253Y-5306910D01*
X15477205Y-5297386D02*
X15486729Y-5306910D01*
X15486729Y-5306910D02*
X15477205Y-5316434D01*
X15477205Y-5316434D02*
X15467682Y-5306910D01*
X15467682Y-5306910D02*
X15477205Y-5297386D01*
X15477205Y-5297386D02*
X15477205Y-5316434D01*
X15477205Y-5192624D02*
X15486729Y-5202148D01*
X15486729Y-5202148D02*
X15477205Y-5211672D01*
X15477205Y-5211672D02*
X15467682Y-5202148D01*
X15467682Y-5202148D02*
X15477205Y-5192624D01*
X15477205Y-5192624D02*
X15477205Y-5211672D01*
D10*
X13775000Y-5609950D02*
X13845000Y-5679950D01*
X13845000Y-5609950D02*
X13775000Y-5679950D01*
D11*
X14143872Y-5536434D02*
X14162920Y-5536434D01*
X14162920Y-5536434D02*
X14181967Y-5545958D01*
X14181967Y-5545958D02*
X14191491Y-5555481D01*
X14191491Y-5555481D02*
X14201015Y-5574529D01*
X14201015Y-5574529D02*
X14210539Y-5612624D01*
X14210539Y-5612624D02*
X14210539Y-5660243D01*
X14210539Y-5660243D02*
X14201015Y-5698338D01*
X14201015Y-5698338D02*
X14191491Y-5717386D01*
X14191491Y-5717386D02*
X14181967Y-5726910D01*
X14181967Y-5726910D02*
X14162920Y-5736434D01*
X14162920Y-5736434D02*
X14143872Y-5736434D01*
X14143872Y-5736434D02*
X14124824Y-5726910D01*
X14124824Y-5726910D02*
X14115301Y-5717386D01*
X14115301Y-5717386D02*
X14105777Y-5698338D01*
X14105777Y-5698338D02*
X14096253Y-5660243D01*
X14096253Y-5660243D02*
X14096253Y-5612624D01*
X14096253Y-5612624D02*
X14105777Y-5574529D01*
X14105777Y-5574529D02*
X14115301Y-5555481D01*
X14115301Y-5555481D02*
X14124824Y-5545958D01*
X14124824Y-5545958D02*
X14143872Y-5536434D01*
X14296253Y-5717386D02*
X14305777Y-5726910D01*
X14305777Y-5726910D02*
X14296253Y-5736434D01*
X14296253Y-5736434D02*
X14286729Y-5726910D01*
X14286729Y-5726910D02*
X14296253Y-5717386D01*
X14296253Y-5717386D02*
X14296253Y-5736434D01*
X14372443Y-5536434D02*
X14505777Y-5536434D01*
X14505777Y-5536434D02*
X14420062Y-5736434D01*
X14620062Y-5536434D02*
X14639110Y-5536434D01*
X14639110Y-5536434D02*
X14658158Y-5545958D01*
X14658158Y-5545958D02*
X14667682Y-5555481D01*
X14667682Y-5555481D02*
X14677205Y-5574529D01*
X14677205Y-5574529D02*
X14686729Y-5612624D01*
X14686729Y-5612624D02*
X14686729Y-5660243D01*
X14686729Y-5660243D02*
X14677205Y-5698338D01*
X14677205Y-5698338D02*
X14667682Y-5717386D01*
X14667682Y-5717386D02*
X14658158Y-5726910D01*
X14658158Y-5726910D02*
X14639110Y-5736434D01*
X14639110Y-5736434D02*
X14620062Y-5736434D01*
X14620062Y-5736434D02*
X14601015Y-5726910D01*
X14601015Y-5726910D02*
X14591491Y-5717386D01*
X14591491Y-5717386D02*
X14581967Y-5698338D01*
X14581967Y-5698338D02*
X14572443Y-5660243D01*
X14572443Y-5660243D02*
X14572443Y-5612624D01*
X14572443Y-5612624D02*
X14581967Y-5574529D01*
X14581967Y-5574529D02*
X14591491Y-5555481D01*
X14591491Y-5555481D02*
X14601015Y-5545958D01*
X14601015Y-5545958D02*
X14620062Y-5536434D01*
X14810539Y-5536434D02*
X14829586Y-5536434D01*
X14829586Y-5536434D02*
X14848634Y-5545958D01*
X14848634Y-5545958D02*
X14858158Y-5555481D01*
X14858158Y-5555481D02*
X14867682Y-5574529D01*
X14867682Y-5574529D02*
X14877205Y-5612624D01*
X14877205Y-5612624D02*
X14877205Y-5660243D01*
X14877205Y-5660243D02*
X14867682Y-5698338D01*
X14867682Y-5698338D02*
X14858158Y-5717386D01*
X14858158Y-5717386D02*
X14848634Y-5726910D01*
X14848634Y-5726910D02*
X14829586Y-5736434D01*
X14829586Y-5736434D02*
X14810539Y-5736434D01*
X14810539Y-5736434D02*
X14791491Y-5726910D01*
X14791491Y-5726910D02*
X14781967Y-5717386D01*
X14781967Y-5717386D02*
X14772443Y-5698338D01*
X14772443Y-5698338D02*
X14762920Y-5660243D01*
X14762920Y-5660243D02*
X14762920Y-5612624D01*
X14762920Y-5612624D02*
X14772443Y-5574529D01*
X14772443Y-5574529D02*
X14781967Y-5555481D01*
X14781967Y-5555481D02*
X14791491Y-5545958D01*
X14791491Y-5545958D02*
X14810539Y-5536434D01*
X14962920Y-5736434D02*
X14962920Y-5603100D01*
X14962920Y-5622148D02*
X14972443Y-5612624D01*
X14972443Y-5612624D02*
X14991491Y-5603100D01*
X14991491Y-5603100D02*
X15020063Y-5603100D01*
X15020063Y-5603100D02*
X15039110Y-5612624D01*
X15039110Y-5612624D02*
X15048634Y-5631672D01*
X15048634Y-5631672D02*
X15048634Y-5736434D01*
X15048634Y-5631672D02*
X15058158Y-5612624D01*
X15058158Y-5612624D02*
X15077205Y-5603100D01*
X15077205Y-5603100D02*
X15105777Y-5603100D01*
X15105777Y-5603100D02*
X15124824Y-5612624D01*
X15124824Y-5612624D02*
X15134348Y-5631672D01*
X15134348Y-5631672D02*
X15134348Y-5736434D01*
X15229586Y-5736434D02*
X15229586Y-5603100D01*
X15229586Y-5622148D02*
X15239110Y-5612624D01*
X15239110Y-5612624D02*
X15258158Y-5603100D01*
X15258158Y-5603100D02*
X15286729Y-5603100D01*
X15286729Y-5603100D02*
X15305777Y-5612624D01*
X15305777Y-5612624D02*
X15315301Y-5631672D01*
X15315301Y-5631672D02*
X15315301Y-5736434D01*
X15315301Y-5631672D02*
X15324824Y-5612624D01*
X15324824Y-5612624D02*
X15343872Y-5603100D01*
X15343872Y-5603100D02*
X15372443Y-5603100D01*
X15372443Y-5603100D02*
X15391491Y-5612624D01*
X15391491Y-5612624D02*
X15401015Y-5631672D01*
X15401015Y-5631672D02*
X15401015Y-5736434D01*
X15791491Y-5526910D02*
X15620063Y-5784053D01*
X16048634Y-5536434D02*
X16067682Y-5536434D01*
X16067682Y-5536434D02*
X16086729Y-5545958D01*
X16086729Y-5545958D02*
X16096253Y-5555481D01*
X16096253Y-5555481D02*
X16105777Y-5574529D01*
X16105777Y-5574529D02*
X16115301Y-5612624D01*
X16115301Y-5612624D02*
X16115301Y-5660243D01*
X16115301Y-5660243D02*
X16105777Y-5698338D01*
X16105777Y-5698338D02*
X16096253Y-5717386D01*
X16096253Y-5717386D02*
X16086729Y-5726910D01*
X16086729Y-5726910D02*
X16067682Y-5736434D01*
X16067682Y-5736434D02*
X16048634Y-5736434D01*
X16048634Y-5736434D02*
X16029586Y-5726910D01*
X16029586Y-5726910D02*
X16020063Y-5717386D01*
X16020063Y-5717386D02*
X16010539Y-5698338D01*
X16010539Y-5698338D02*
X16001015Y-5660243D01*
X16001015Y-5660243D02*
X16001015Y-5612624D01*
X16001015Y-5612624D02*
X16010539Y-5574529D01*
X16010539Y-5574529D02*
X16020063Y-5555481D01*
X16020063Y-5555481D02*
X16029586Y-5545958D01*
X16029586Y-5545958D02*
X16048634Y-5536434D01*
X16201015Y-5717386D02*
X16210539Y-5726910D01*
X16210539Y-5726910D02*
X16201015Y-5736434D01*
X16201015Y-5736434D02*
X16191491Y-5726910D01*
X16191491Y-5726910D02*
X16201015Y-5717386D01*
X16201015Y-5717386D02*
X16201015Y-5736434D01*
X16334348Y-5536434D02*
X16353396Y-5536434D01*
X16353396Y-5536434D02*
X16372444Y-5545958D01*
X16372444Y-5545958D02*
X16381967Y-5555481D01*
X16381967Y-5555481D02*
X16391491Y-5574529D01*
X16391491Y-5574529D02*
X16401015Y-5612624D01*
X16401015Y-5612624D02*
X16401015Y-5660243D01*
X16401015Y-5660243D02*
X16391491Y-5698338D01*
X16391491Y-5698338D02*
X16381967Y-5717386D01*
X16381967Y-5717386D02*
X16372444Y-5726910D01*
X16372444Y-5726910D02*
X16353396Y-5736434D01*
X16353396Y-5736434D02*
X16334348Y-5736434D01*
X16334348Y-5736434D02*
X16315301Y-5726910D01*
X16315301Y-5726910D02*
X16305777Y-5717386D01*
X16305777Y-5717386D02*
X16296253Y-5698338D01*
X16296253Y-5698338D02*
X16286729Y-5660243D01*
X16286729Y-5660243D02*
X16286729Y-5612624D01*
X16286729Y-5612624D02*
X16296253Y-5574529D01*
X16296253Y-5574529D02*
X16305777Y-5555481D01*
X16305777Y-5555481D02*
X16315301Y-5545958D01*
X16315301Y-5545958D02*
X16334348Y-5536434D01*
X16477206Y-5555481D02*
X16486729Y-5545958D01*
X16486729Y-5545958D02*
X16505777Y-5536434D01*
X16505777Y-5536434D02*
X16553396Y-5536434D01*
X16553396Y-5536434D02*
X16572444Y-5545958D01*
X16572444Y-5545958D02*
X16581967Y-5555481D01*
X16581967Y-5555481D02*
X16591491Y-5574529D01*
X16591491Y-5574529D02*
X16591491Y-5593577D01*
X16591491Y-5593577D02*
X16581967Y-5622148D01*
X16581967Y-5622148D02*
X16467682Y-5736434D01*
X16467682Y-5736434D02*
X16591491Y-5736434D01*
X16658158Y-5536434D02*
X16791491Y-5536434D01*
X16791491Y-5536434D02*
X16705777Y-5736434D01*
X16953396Y-5536434D02*
X16915301Y-5536434D01*
X16915301Y-5536434D02*
X16896253Y-5545958D01*
X16896253Y-5545958D02*
X16886729Y-5555481D01*
X16886729Y-5555481D02*
X16867682Y-5584053D01*
X16867682Y-5584053D02*
X16858158Y-5622148D01*
X16858158Y-5622148D02*
X16858158Y-5698338D01*
X16858158Y-5698338D02*
X16867682Y-5717386D01*
X16867682Y-5717386D02*
X16877206Y-5726910D01*
X16877206Y-5726910D02*
X16896253Y-5736434D01*
X16896253Y-5736434D02*
X16934349Y-5736434D01*
X16934349Y-5736434D02*
X16953396Y-5726910D01*
X16953396Y-5726910D02*
X16962920Y-5717386D01*
X16962920Y-5717386D02*
X16972444Y-5698338D01*
X16972444Y-5698338D02*
X16972444Y-5650719D01*
X16972444Y-5650719D02*
X16962920Y-5631672D01*
X16962920Y-5631672D02*
X16953396Y-5622148D01*
X16953396Y-5622148D02*
X16934349Y-5612624D01*
X16934349Y-5612624D02*
X16896253Y-5612624D01*
X16896253Y-5612624D02*
X16877206Y-5622148D01*
X16877206Y-5622148D02*
X16867682Y-5631672D01*
X16867682Y-5631672D02*
X16858158Y-5650719D01*
X17048634Y-5536434D02*
X17048634Y-5574529D01*
X17124825Y-5536434D02*
X17124825Y-5574529D01*
X17420063Y-5812624D02*
X17410539Y-5803100D01*
X17410539Y-5803100D02*
X17391491Y-5774529D01*
X17391491Y-5774529D02*
X17381968Y-5755481D01*
X17381968Y-5755481D02*
X17372444Y-5726910D01*
X17372444Y-5726910D02*
X17362920Y-5679291D01*
X17362920Y-5679291D02*
X17362920Y-5641196D01*
X17362920Y-5641196D02*
X17372444Y-5593577D01*
X17372444Y-5593577D02*
X17381968Y-5565005D01*
X17381968Y-5565005D02*
X17391491Y-5545958D01*
X17391491Y-5545958D02*
X17410539Y-5517386D01*
X17410539Y-5517386D02*
X17420063Y-5507862D01*
X17486730Y-5555481D02*
X17496253Y-5545958D01*
X17496253Y-5545958D02*
X17515301Y-5536434D01*
X17515301Y-5536434D02*
X17562920Y-5536434D01*
X17562920Y-5536434D02*
X17581968Y-5545958D01*
X17581968Y-5545958D02*
X17591491Y-5555481D01*
X17591491Y-5555481D02*
X17601015Y-5574529D01*
X17601015Y-5574529D02*
X17601015Y-5593577D01*
X17601015Y-5593577D02*
X17591491Y-5622148D01*
X17591491Y-5622148D02*
X17477206Y-5736434D01*
X17477206Y-5736434D02*
X17601015Y-5736434D01*
X17772444Y-5603100D02*
X17772444Y-5736434D01*
X17724825Y-5526910D02*
X17677206Y-5669767D01*
X17677206Y-5669767D02*
X17801015Y-5669767D01*
X18029587Y-5736434D02*
X18029587Y-5536434D01*
X18115301Y-5736434D02*
X18115301Y-5631672D01*
X18115301Y-5631672D02*
X18105777Y-5612624D01*
X18105777Y-5612624D02*
X18086730Y-5603100D01*
X18086730Y-5603100D02*
X18058158Y-5603100D01*
X18058158Y-5603100D02*
X18039111Y-5612624D01*
X18039111Y-5612624D02*
X18029587Y-5622148D01*
X18239111Y-5736434D02*
X18220063Y-5726910D01*
X18220063Y-5726910D02*
X18210539Y-5717386D01*
X18210539Y-5717386D02*
X18201015Y-5698338D01*
X18201015Y-5698338D02*
X18201015Y-5641196D01*
X18201015Y-5641196D02*
X18210539Y-5622148D01*
X18210539Y-5622148D02*
X18220063Y-5612624D01*
X18220063Y-5612624D02*
X18239111Y-5603100D01*
X18239111Y-5603100D02*
X18267682Y-5603100D01*
X18267682Y-5603100D02*
X18286730Y-5612624D01*
X18286730Y-5612624D02*
X18296253Y-5622148D01*
X18296253Y-5622148D02*
X18305777Y-5641196D01*
X18305777Y-5641196D02*
X18305777Y-5698338D01*
X18305777Y-5698338D02*
X18296253Y-5717386D01*
X18296253Y-5717386D02*
X18286730Y-5726910D01*
X18286730Y-5726910D02*
X18267682Y-5736434D01*
X18267682Y-5736434D02*
X18239111Y-5736434D01*
X18420063Y-5736434D02*
X18401015Y-5726910D01*
X18401015Y-5726910D02*
X18391492Y-5707862D01*
X18391492Y-5707862D02*
X18391492Y-5536434D01*
X18572444Y-5726910D02*
X18553396Y-5736434D01*
X18553396Y-5736434D02*
X18515301Y-5736434D01*
X18515301Y-5736434D02*
X18496253Y-5726910D01*
X18496253Y-5726910D02*
X18486730Y-5707862D01*
X18486730Y-5707862D02*
X18486730Y-5631672D01*
X18486730Y-5631672D02*
X18496253Y-5612624D01*
X18496253Y-5612624D02*
X18515301Y-5603100D01*
X18515301Y-5603100D02*
X18553396Y-5603100D01*
X18553396Y-5603100D02*
X18572444Y-5612624D01*
X18572444Y-5612624D02*
X18581968Y-5631672D01*
X18581968Y-5631672D02*
X18581968Y-5650719D01*
X18581968Y-5650719D02*
X18486730Y-5669767D01*
X18658158Y-5726910D02*
X18677206Y-5736434D01*
X18677206Y-5736434D02*
X18715301Y-5736434D01*
X18715301Y-5736434D02*
X18734349Y-5726910D01*
X18734349Y-5726910D02*
X18743873Y-5707862D01*
X18743873Y-5707862D02*
X18743873Y-5698338D01*
X18743873Y-5698338D02*
X18734349Y-5679291D01*
X18734349Y-5679291D02*
X18715301Y-5669767D01*
X18715301Y-5669767D02*
X18686730Y-5669767D01*
X18686730Y-5669767D02*
X18667682Y-5660243D01*
X18667682Y-5660243D02*
X18658158Y-5641196D01*
X18658158Y-5641196D02*
X18658158Y-5631672D01*
X18658158Y-5631672D02*
X18667682Y-5612624D01*
X18667682Y-5612624D02*
X18686730Y-5603100D01*
X18686730Y-5603100D02*
X18715301Y-5603100D01*
X18715301Y-5603100D02*
X18734349Y-5612624D01*
X18810539Y-5812624D02*
X18820063Y-5803100D01*
X18820063Y-5803100D02*
X18839111Y-5774529D01*
X18839111Y-5774529D02*
X18848634Y-5755481D01*
X18848634Y-5755481D02*
X18858158Y-5726910D01*
X18858158Y-5726910D02*
X18867682Y-5679291D01*
X18867682Y-5679291D02*
X18867682Y-5641196D01*
X18867682Y-5641196D02*
X18858158Y-5593577D01*
X18858158Y-5593577D02*
X18848634Y-5565005D01*
X18848634Y-5565005D02*
X18839111Y-5545958D01*
X18839111Y-5545958D02*
X18820063Y-5517386D01*
X18820063Y-5517386D02*
X18810539Y-5507862D01*
M02*
