%TF.GenerationSoftware,KiCad,Pcbnew,8.0.0*%
%TF.CreationDate,2024-03-11T21:29:40-07:00*%
%TF.ProjectId,Pinlight_panel,50696e6c-6967-4687-945f-70616e656c2e,rev?*%
%TF.SameCoordinates,Original*%
%TF.FileFunction,Soldermask,Top*%
%TF.FilePolarity,Negative*%
%FSLAX46Y46*%
G04 Gerber Fmt 4.6, Leading zero omitted, Abs format (unit mm)*
G04 Created by KiCad (PCBNEW 8.0.0) date 2024-03-11 21:29:40*
%MOMM*%
%LPD*%
G01*
G04 APERTURE LIST*
%ADD10R,1.400000X0.650000*%
%ADD11C,1.100000*%
%ADD12C,0.500000*%
%ADD13C,1.000000*%
G04 APERTURE END LIST*
D10*
%TO.C,U1*%
X152300000Y-27899500D03*
X152300000Y-28999500D03*
X152300000Y-30099500D03*
X155700000Y-30099500D03*
X155700000Y-28999500D03*
X155700000Y-27899500D03*
%TD*%
D11*
%TO.C,KiKit_TO_3*%
X142500000Y-47499500D03*
%TD*%
D12*
%TO.C,KiKit_MB_12_2*%
X154000000Y-42999500D03*
%TD*%
%TO.C,KiKit_MB_3_2*%
X154000000Y-26999979D03*
%TD*%
%TO.C,KiKit_MB_2_3*%
X142000000Y-30999500D03*
%TD*%
D13*
%TO.C,H2*%
X146700000Y-42199500D03*
%TD*%
D12*
%TO.C,KiKit_MB_9_3*%
X144000000Y-38999851D03*
%TD*%
D13*
%TO.C,H4*%
X139300000Y-39799500D03*
%TD*%
D11*
%TO.C,KiKit_TO_4*%
X154500000Y-47499500D03*
%TD*%
%TO.C,KiKit_TO_1*%
X142500000Y-22500000D03*
%TD*%
D10*
%TO.C,U1*%
X141300000Y-33899500D03*
X141300000Y-34999500D03*
X141300000Y-36099500D03*
X144700000Y-36099500D03*
X144700000Y-34999500D03*
X144700000Y-33899500D03*
%TD*%
D12*
%TO.C,KiKit_MB_11_1*%
X153000000Y-39000106D03*
%TD*%
%TO.C,KiKit_MB_11_2*%
X154000000Y-38999978D03*
%TD*%
%TO.C,KiKit_MB_1_2*%
X143000000Y-26999979D03*
%TD*%
%TO.C,KiKit_MB_1_1*%
X142000000Y-27000107D03*
%TD*%
D13*
%TO.C,H1*%
X146700000Y-33799500D03*
%TD*%
D12*
%TO.C,KiKit_MB_7_2*%
X154000000Y-32999978D03*
%TD*%
%TO.C,KiKit_MB_6_1*%
X144000000Y-36999500D03*
%TD*%
D13*
%TO.C,H1*%
X146700000Y-39799500D03*
%TD*%
D12*
%TO.C,KiKit_MB_7_1*%
X153000000Y-33000106D03*
%TD*%
%TO.C,KiKit_MB_4_2*%
X154000000Y-30999500D03*
%TD*%
%TO.C,KiKit_MB_1_3*%
X144000000Y-26999852D03*
%TD*%
%TO.C,KiKit_MB_2_2*%
X143000000Y-30999500D03*
%TD*%
D13*
%TO.C,H3*%
X150300000Y-36199500D03*
%TD*%
%TO.C,H3*%
X150300000Y-42199500D03*
%TD*%
D12*
%TO.C,KiKit_MB_11_3*%
X155000000Y-38999851D03*
%TD*%
%TO.C,KiKit_MB_5_2*%
X143000000Y-32999978D03*
%TD*%
D13*
%TO.C,H1*%
X157700000Y-33799500D03*
%TD*%
D12*
%TO.C,KiKit_MB_3_1*%
X153000000Y-27000107D03*
%TD*%
%TO.C,KiKit_MB_6_2*%
X143000000Y-36999500D03*
%TD*%
D13*
%TO.C,H4*%
X150300000Y-27799500D03*
%TD*%
D12*
%TO.C,KiKit_MB_4_1*%
X155000000Y-30999500D03*
%TD*%
%TO.C,KiKit_MB_8_3*%
X153000000Y-36999500D03*
%TD*%
%TO.C,KiKit_MB_8_2*%
X154000000Y-36999500D03*
%TD*%
D13*
%TO.C,H2*%
X146700000Y-36199500D03*
%TD*%
D10*
%TO.C,U1*%
X141300000Y-27899500D03*
X141300000Y-28999500D03*
X141300000Y-30099500D03*
X144700000Y-30099500D03*
X144700000Y-28999500D03*
X144700000Y-27899500D03*
%TD*%
D12*
%TO.C,KiKit_MB_9_1*%
X142000000Y-39000106D03*
%TD*%
D13*
%TO.C,H2*%
X157700000Y-36199500D03*
%TD*%
%TO.C,H3*%
X139300000Y-42199500D03*
%TD*%
%TO.C,H1*%
X157700000Y-39799500D03*
%TD*%
D12*
%TO.C,KiKit_MB_5_1*%
X142000000Y-33000106D03*
%TD*%
%TO.C,KiKit_MB_10_3*%
X142000000Y-42999500D03*
%TD*%
D13*
%TO.C,H3*%
X150300000Y-30199500D03*
%TD*%
%TO.C,H4*%
X139300000Y-33799500D03*
%TD*%
D12*
%TO.C,KiKit_MB_4_3*%
X153000000Y-30999500D03*
%TD*%
D11*
%TO.C,KiKit_TO_2*%
X154500000Y-22500000D03*
%TD*%
D10*
%TO.C,U1*%
X152300000Y-33899500D03*
X152300000Y-34999500D03*
X152300000Y-36099500D03*
X155700000Y-36099500D03*
X155700000Y-34999500D03*
X155700000Y-33899500D03*
%TD*%
D13*
%TO.C,H4*%
X150300000Y-39799500D03*
%TD*%
%TO.C,H1*%
X146700000Y-27799500D03*
%TD*%
D12*
%TO.C,KiKit_MB_10_2*%
X143000000Y-42999500D03*
%TD*%
%TO.C,KiKit_MB_2_1*%
X144000000Y-30999500D03*
%TD*%
%TO.C,KiKit_MB_12_3*%
X153000000Y-42999500D03*
%TD*%
D13*
%TO.C,H2*%
X146700000Y-30199500D03*
%TD*%
D12*
%TO.C,KiKit_MB_7_3*%
X155000000Y-32999851D03*
%TD*%
D10*
%TO.C,U1*%
X152300000Y-39899500D03*
X152300000Y-40999500D03*
X152300000Y-42099500D03*
X155700000Y-42099500D03*
X155700000Y-40999500D03*
X155700000Y-39899500D03*
%TD*%
D12*
%TO.C,KiKit_MB_12_1*%
X155000000Y-42999500D03*
%TD*%
%TO.C,KiKit_MB_6_3*%
X142000000Y-36999500D03*
%TD*%
D13*
%TO.C,H1*%
X157700000Y-27799500D03*
%TD*%
D12*
%TO.C,KiKit_MB_3_3*%
X155000000Y-26999852D03*
%TD*%
%TO.C,KiKit_MB_10_1*%
X144000000Y-42999500D03*
%TD*%
D10*
%TO.C,U1*%
X141300000Y-39899500D03*
X141300000Y-40999500D03*
X141300000Y-42099500D03*
X144700000Y-42099500D03*
X144700000Y-40999500D03*
X144700000Y-39899500D03*
%TD*%
D13*
%TO.C,H2*%
X157700000Y-30199500D03*
%TD*%
%TO.C,H3*%
X139300000Y-36199500D03*
%TD*%
D12*
%TO.C,KiKit_MB_5_3*%
X144000000Y-32999851D03*
%TD*%
D13*
%TO.C,H4*%
X150300000Y-33799500D03*
%TD*%
D12*
%TO.C,KiKit_MB_8_1*%
X155000000Y-36999500D03*
%TD*%
%TO.C,KiKit_MB_9_2*%
X143000000Y-38999978D03*
%TD*%
D13*
%TO.C,H3*%
X139300000Y-30199500D03*
%TD*%
%TO.C,H2*%
X157700000Y-42199500D03*
%TD*%
%TO.C,H4*%
X139300000Y-27799500D03*
%TD*%
G36*
X151093039Y-41269185D02*
G01*
X151138794Y-41321989D01*
X151150000Y-41373500D01*
X151150000Y-42875500D01*
X151130315Y-42942539D01*
X151077511Y-42988294D01*
X151026000Y-42999500D01*
X150251719Y-42999500D01*
X150248248Y-42999451D01*
X150177974Y-42997483D01*
X150153852Y-42994423D01*
X150015127Y-42962760D01*
X149988918Y-42953589D01*
X149862300Y-42892613D01*
X149838789Y-42877840D01*
X149728915Y-42790218D01*
X149709281Y-42770584D01*
X149621659Y-42660710D01*
X149606886Y-42637199D01*
X149545910Y-42510581D01*
X149536739Y-42484372D01*
X149505076Y-42345647D01*
X149502016Y-42321523D01*
X149500049Y-42251249D01*
X149500000Y-42247780D01*
X149500000Y-41373500D01*
X149519685Y-41306461D01*
X149572489Y-41260706D01*
X149624000Y-41249500D01*
X151026000Y-41249500D01*
X151093039Y-41269185D01*
G37*
G36*
X140093039Y-41269185D02*
G01*
X140138794Y-41321989D01*
X140150000Y-41373500D01*
X140150000Y-42875500D01*
X140130315Y-42942539D01*
X140077511Y-42988294D01*
X140026000Y-42999500D01*
X139251719Y-42999500D01*
X139248248Y-42999451D01*
X139177974Y-42997483D01*
X139153852Y-42994423D01*
X139015127Y-42962760D01*
X138988918Y-42953589D01*
X138862300Y-42892613D01*
X138838789Y-42877840D01*
X138728915Y-42790218D01*
X138709281Y-42770584D01*
X138621659Y-42660710D01*
X138606886Y-42637199D01*
X138545910Y-42510581D01*
X138536739Y-42484372D01*
X138505076Y-42345647D01*
X138502016Y-42321523D01*
X138500049Y-42251249D01*
X138500000Y-42247780D01*
X138500000Y-41373500D01*
X138519685Y-41306461D01*
X138572489Y-41260706D01*
X138624000Y-41249500D01*
X140026000Y-41249500D01*
X140093039Y-41269185D01*
G37*
G36*
X146751751Y-32999549D02*
G01*
X146822024Y-33001516D01*
X146846147Y-33004576D01*
X146984872Y-33036239D01*
X147011081Y-33045410D01*
X147137699Y-33106386D01*
X147161210Y-33121159D01*
X147271084Y-33208781D01*
X147290718Y-33228415D01*
X147378340Y-33338289D01*
X147393113Y-33361800D01*
X147454089Y-33488418D01*
X147463260Y-33514627D01*
X147494923Y-33653352D01*
X147497983Y-33677474D01*
X147499951Y-33747748D01*
X147500000Y-33751219D01*
X147500000Y-34625500D01*
X147480315Y-34692539D01*
X147427511Y-34738294D01*
X147376000Y-34749500D01*
X145974000Y-34749500D01*
X145906961Y-34729815D01*
X145861206Y-34677011D01*
X145850000Y-34625500D01*
X145850000Y-33123500D01*
X145869685Y-33056461D01*
X145922489Y-33010706D01*
X145974000Y-32999500D01*
X146748281Y-32999500D01*
X146751751Y-32999549D01*
G37*
G36*
X151093039Y-39019185D02*
G01*
X151138794Y-39071989D01*
X151150000Y-39123500D01*
X151150000Y-40625500D01*
X151130315Y-40692539D01*
X151077511Y-40738294D01*
X151026000Y-40749500D01*
X149624000Y-40749500D01*
X149556961Y-40729815D01*
X149511206Y-40677011D01*
X149500000Y-40625500D01*
X149500000Y-39751219D01*
X149500049Y-39747750D01*
X149502016Y-39677476D01*
X149505076Y-39653352D01*
X149536739Y-39514627D01*
X149545910Y-39488418D01*
X149606886Y-39361800D01*
X149621659Y-39338289D01*
X149709281Y-39228415D01*
X149728915Y-39208781D01*
X149838789Y-39121159D01*
X149862300Y-39106386D01*
X149988918Y-39045410D01*
X150015127Y-39036239D01*
X150153852Y-39004576D01*
X150177976Y-39001516D01*
X150248250Y-38999549D01*
X150251719Y-38999500D01*
X151026000Y-38999500D01*
X151093039Y-39019185D01*
G37*
G36*
X140093039Y-39019185D02*
G01*
X140138794Y-39071989D01*
X140150000Y-39123500D01*
X140150000Y-40625500D01*
X140130315Y-40692539D01*
X140077511Y-40738294D01*
X140026000Y-40749500D01*
X138624000Y-40749500D01*
X138556961Y-40729815D01*
X138511206Y-40677011D01*
X138500000Y-40625500D01*
X138500000Y-39751219D01*
X138500049Y-39747750D01*
X138502016Y-39677476D01*
X138505076Y-39653352D01*
X138536739Y-39514627D01*
X138545910Y-39488418D01*
X138606886Y-39361800D01*
X138621659Y-39338289D01*
X138709281Y-39228415D01*
X138728915Y-39208781D01*
X138838789Y-39121159D01*
X138862300Y-39106386D01*
X138988918Y-39045410D01*
X139015127Y-39036239D01*
X139153852Y-39004576D01*
X139177976Y-39001516D01*
X139248250Y-38999549D01*
X139251719Y-38999500D01*
X140026000Y-38999500D01*
X140093039Y-39019185D01*
G37*
G36*
X151093039Y-29269185D02*
G01*
X151138794Y-29321989D01*
X151150000Y-29373500D01*
X151150000Y-30875500D01*
X151130315Y-30942539D01*
X151077511Y-30988294D01*
X151026000Y-30999500D01*
X150251719Y-30999500D01*
X150248248Y-30999451D01*
X150177974Y-30997483D01*
X150153852Y-30994423D01*
X150015127Y-30962760D01*
X149988918Y-30953589D01*
X149862300Y-30892613D01*
X149838789Y-30877840D01*
X149728915Y-30790218D01*
X149709281Y-30770584D01*
X149621659Y-30660710D01*
X149606886Y-30637199D01*
X149545910Y-30510581D01*
X149536739Y-30484372D01*
X149505076Y-30345647D01*
X149502016Y-30321523D01*
X149500049Y-30251249D01*
X149500000Y-30247780D01*
X149500000Y-29373500D01*
X149519685Y-29306461D01*
X149572489Y-29260706D01*
X149624000Y-29249500D01*
X151026000Y-29249500D01*
X151093039Y-29269185D01*
G37*
G36*
X151093039Y-27019185D02*
G01*
X151138794Y-27071989D01*
X151150000Y-27123500D01*
X151150000Y-28625500D01*
X151130315Y-28692539D01*
X151077511Y-28738294D01*
X151026000Y-28749500D01*
X149624000Y-28749500D01*
X149556961Y-28729815D01*
X149511206Y-28677011D01*
X149500000Y-28625500D01*
X149500000Y-27751219D01*
X149500049Y-27747750D01*
X149502016Y-27677476D01*
X149505076Y-27653352D01*
X149536739Y-27514627D01*
X149545910Y-27488418D01*
X149606886Y-27361800D01*
X149621659Y-27338289D01*
X149709281Y-27228415D01*
X149728915Y-27208781D01*
X149838789Y-27121159D01*
X149862300Y-27106386D01*
X149988918Y-27045410D01*
X150015127Y-27036239D01*
X150153852Y-27004576D01*
X150177976Y-27001516D01*
X150248250Y-26999549D01*
X150251719Y-26999500D01*
X151026000Y-26999500D01*
X151093039Y-27019185D01*
G37*
G36*
X147443039Y-35269185D02*
G01*
X147488794Y-35321989D01*
X147500000Y-35373500D01*
X147500000Y-36247780D01*
X147499951Y-36251251D01*
X147497983Y-36321525D01*
X147494923Y-36345647D01*
X147463260Y-36484372D01*
X147454089Y-36510581D01*
X147393113Y-36637199D01*
X147378340Y-36660710D01*
X147290718Y-36770584D01*
X147271084Y-36790218D01*
X147161210Y-36877840D01*
X147137699Y-36892613D01*
X147011081Y-36953589D01*
X146984872Y-36962760D01*
X146846147Y-36994423D01*
X146822025Y-36997483D01*
X146751752Y-36999451D01*
X146748281Y-36999500D01*
X145974000Y-36999500D01*
X145906961Y-36979815D01*
X145861206Y-36927011D01*
X145850000Y-36875500D01*
X145850000Y-35373500D01*
X145869685Y-35306461D01*
X145922489Y-35260706D01*
X145974000Y-35249500D01*
X147376000Y-35249500D01*
X147443039Y-35269185D01*
G37*
G36*
X146751751Y-38999549D02*
G01*
X146822024Y-39001516D01*
X146846147Y-39004576D01*
X146984872Y-39036239D01*
X147011081Y-39045410D01*
X147137699Y-39106386D01*
X147161210Y-39121159D01*
X147271084Y-39208781D01*
X147290718Y-39228415D01*
X147378340Y-39338289D01*
X147393113Y-39361800D01*
X147454089Y-39488418D01*
X147463260Y-39514627D01*
X147494923Y-39653352D01*
X147497983Y-39677474D01*
X147499951Y-39747748D01*
X147500000Y-39751219D01*
X147500000Y-40625500D01*
X147480315Y-40692539D01*
X147427511Y-40738294D01*
X147376000Y-40749500D01*
X145974000Y-40749500D01*
X145906961Y-40729815D01*
X145861206Y-40677011D01*
X145850000Y-40625500D01*
X145850000Y-39123500D01*
X145869685Y-39056461D01*
X145922489Y-39010706D01*
X145974000Y-38999500D01*
X146748281Y-38999500D01*
X146751751Y-38999549D01*
G37*
G36*
X140093039Y-33019185D02*
G01*
X140138794Y-33071989D01*
X140150000Y-33123500D01*
X140150000Y-34625500D01*
X140130315Y-34692539D01*
X140077511Y-34738294D01*
X140026000Y-34749500D01*
X138624000Y-34749500D01*
X138556961Y-34729815D01*
X138511206Y-34677011D01*
X138500000Y-34625500D01*
X138500000Y-33751219D01*
X138500049Y-33747750D01*
X138502016Y-33677476D01*
X138505076Y-33653352D01*
X138536739Y-33514627D01*
X138545910Y-33488418D01*
X138606886Y-33361800D01*
X138621659Y-33338289D01*
X138709281Y-33228415D01*
X138728915Y-33208781D01*
X138838789Y-33121159D01*
X138862300Y-33106386D01*
X138988918Y-33045410D01*
X139015127Y-33036239D01*
X139153852Y-33004576D01*
X139177976Y-33001516D01*
X139248250Y-32999549D01*
X139251719Y-32999500D01*
X140026000Y-32999500D01*
X140093039Y-33019185D01*
G37*
G36*
X158443039Y-35269185D02*
G01*
X158488794Y-35321989D01*
X158500000Y-35373500D01*
X158500000Y-36247780D01*
X158499951Y-36251251D01*
X158497983Y-36321525D01*
X158494923Y-36345647D01*
X158463260Y-36484372D01*
X158454089Y-36510581D01*
X158393113Y-36637199D01*
X158378340Y-36660710D01*
X158290718Y-36770584D01*
X158271084Y-36790218D01*
X158161210Y-36877840D01*
X158137699Y-36892613D01*
X158011081Y-36953589D01*
X157984872Y-36962760D01*
X157846147Y-36994423D01*
X157822025Y-36997483D01*
X157751752Y-36999451D01*
X157748281Y-36999500D01*
X156974000Y-36999500D01*
X156906961Y-36979815D01*
X156861206Y-36927011D01*
X156850000Y-36875500D01*
X156850000Y-35373500D01*
X156869685Y-35306461D01*
X156922489Y-35260706D01*
X156974000Y-35249500D01*
X158376000Y-35249500D01*
X158443039Y-35269185D01*
G37*
G36*
X140093039Y-27019185D02*
G01*
X140138794Y-27071989D01*
X140150000Y-27123500D01*
X140150000Y-28625500D01*
X140130315Y-28692539D01*
X140077511Y-28738294D01*
X140026000Y-28749500D01*
X138624000Y-28749500D01*
X138556961Y-28729815D01*
X138511206Y-28677011D01*
X138500000Y-28625500D01*
X138500000Y-27751219D01*
X138500049Y-27747750D01*
X138502016Y-27677476D01*
X138505076Y-27653352D01*
X138536739Y-27514627D01*
X138545910Y-27488418D01*
X138606886Y-27361800D01*
X138621659Y-27338289D01*
X138709281Y-27228415D01*
X138728915Y-27208781D01*
X138838789Y-27121159D01*
X138862300Y-27106386D01*
X138988918Y-27045410D01*
X139015127Y-27036239D01*
X139153852Y-27004576D01*
X139177976Y-27001516D01*
X139248250Y-26999549D01*
X139251719Y-26999500D01*
X140026000Y-26999500D01*
X140093039Y-27019185D01*
G37*
G36*
X146751751Y-26999549D02*
G01*
X146822024Y-27001516D01*
X146846147Y-27004576D01*
X146984872Y-27036239D01*
X147011081Y-27045410D01*
X147137699Y-27106386D01*
X147161210Y-27121159D01*
X147271084Y-27208781D01*
X147290718Y-27228415D01*
X147378340Y-27338289D01*
X147393113Y-27361800D01*
X147454089Y-27488418D01*
X147463260Y-27514627D01*
X147494923Y-27653352D01*
X147497983Y-27677474D01*
X147499951Y-27747748D01*
X147500000Y-27751219D01*
X147500000Y-28625500D01*
X147480315Y-28692539D01*
X147427511Y-28738294D01*
X147376000Y-28749500D01*
X145974000Y-28749500D01*
X145906961Y-28729815D01*
X145861206Y-28677011D01*
X145850000Y-28625500D01*
X145850000Y-27123500D01*
X145869685Y-27056461D01*
X145922489Y-27010706D01*
X145974000Y-26999500D01*
X146748281Y-26999500D01*
X146751751Y-26999549D01*
G37*
G36*
X151093039Y-35269185D02*
G01*
X151138794Y-35321989D01*
X151150000Y-35373500D01*
X151150000Y-36875500D01*
X151130315Y-36942539D01*
X151077511Y-36988294D01*
X151026000Y-36999500D01*
X150251719Y-36999500D01*
X150248248Y-36999451D01*
X150177974Y-36997483D01*
X150153852Y-36994423D01*
X150015127Y-36962760D01*
X149988918Y-36953589D01*
X149862300Y-36892613D01*
X149838789Y-36877840D01*
X149728915Y-36790218D01*
X149709281Y-36770584D01*
X149621659Y-36660710D01*
X149606886Y-36637199D01*
X149545910Y-36510581D01*
X149536739Y-36484372D01*
X149505076Y-36345647D01*
X149502016Y-36321523D01*
X149500049Y-36251249D01*
X149500000Y-36247780D01*
X149500000Y-35373500D01*
X149519685Y-35306461D01*
X149572489Y-35260706D01*
X149624000Y-35249500D01*
X151026000Y-35249500D01*
X151093039Y-35269185D01*
G37*
G36*
X158443039Y-29269185D02*
G01*
X158488794Y-29321989D01*
X158500000Y-29373500D01*
X158500000Y-30247780D01*
X158499951Y-30251251D01*
X158497983Y-30321525D01*
X158494923Y-30345647D01*
X158463260Y-30484372D01*
X158454089Y-30510581D01*
X158393113Y-30637199D01*
X158378340Y-30660710D01*
X158290718Y-30770584D01*
X158271084Y-30790218D01*
X158161210Y-30877840D01*
X158137699Y-30892613D01*
X158011081Y-30953589D01*
X157984872Y-30962760D01*
X157846147Y-30994423D01*
X157822025Y-30997483D01*
X157751752Y-30999451D01*
X157748281Y-30999500D01*
X156974000Y-30999500D01*
X156906961Y-30979815D01*
X156861206Y-30927011D01*
X156850000Y-30875500D01*
X156850000Y-29373500D01*
X156869685Y-29306461D01*
X156922489Y-29260706D01*
X156974000Y-29249500D01*
X158376000Y-29249500D01*
X158443039Y-29269185D01*
G37*
G36*
X157751751Y-32999549D02*
G01*
X157822024Y-33001516D01*
X157846147Y-33004576D01*
X157984872Y-33036239D01*
X158011081Y-33045410D01*
X158137699Y-33106386D01*
X158161210Y-33121159D01*
X158271084Y-33208781D01*
X158290718Y-33228415D01*
X158378340Y-33338289D01*
X158393113Y-33361800D01*
X158454089Y-33488418D01*
X158463260Y-33514627D01*
X158494923Y-33653352D01*
X158497983Y-33677474D01*
X158499951Y-33747748D01*
X158500000Y-33751219D01*
X158500000Y-34625500D01*
X158480315Y-34692539D01*
X158427511Y-34738294D01*
X158376000Y-34749500D01*
X156974000Y-34749500D01*
X156906961Y-34729815D01*
X156861206Y-34677011D01*
X156850000Y-34625500D01*
X156850000Y-33123500D01*
X156869685Y-33056461D01*
X156922489Y-33010706D01*
X156974000Y-32999500D01*
X157748281Y-32999500D01*
X157751751Y-32999549D01*
G37*
G36*
X151093039Y-33019185D02*
G01*
X151138794Y-33071989D01*
X151150000Y-33123500D01*
X151150000Y-34625500D01*
X151130315Y-34692539D01*
X151077511Y-34738294D01*
X151026000Y-34749500D01*
X149624000Y-34749500D01*
X149556961Y-34729815D01*
X149511206Y-34677011D01*
X149500000Y-34625500D01*
X149500000Y-33751219D01*
X149500049Y-33747750D01*
X149502016Y-33677476D01*
X149505076Y-33653352D01*
X149536739Y-33514627D01*
X149545910Y-33488418D01*
X149606886Y-33361800D01*
X149621659Y-33338289D01*
X149709281Y-33228415D01*
X149728915Y-33208781D01*
X149838789Y-33121159D01*
X149862300Y-33106386D01*
X149988918Y-33045410D01*
X150015127Y-33036239D01*
X150153852Y-33004576D01*
X150177976Y-33001516D01*
X150248250Y-32999549D01*
X150251719Y-32999500D01*
X151026000Y-32999500D01*
X151093039Y-33019185D01*
G37*
G36*
X147443039Y-41269185D02*
G01*
X147488794Y-41321989D01*
X147500000Y-41373500D01*
X147500000Y-42247780D01*
X147499951Y-42251251D01*
X147497983Y-42321525D01*
X147494923Y-42345647D01*
X147463260Y-42484372D01*
X147454089Y-42510581D01*
X147393113Y-42637199D01*
X147378340Y-42660710D01*
X147290718Y-42770584D01*
X147271084Y-42790218D01*
X147161210Y-42877840D01*
X147137699Y-42892613D01*
X147011081Y-42953589D01*
X146984872Y-42962760D01*
X146846147Y-42994423D01*
X146822025Y-42997483D01*
X146751752Y-42999451D01*
X146748281Y-42999500D01*
X145974000Y-42999500D01*
X145906961Y-42979815D01*
X145861206Y-42927011D01*
X145850000Y-42875500D01*
X145850000Y-41373500D01*
X145869685Y-41306461D01*
X145922489Y-41260706D01*
X145974000Y-41249500D01*
X147376000Y-41249500D01*
X147443039Y-41269185D01*
G37*
G36*
X140093039Y-35269185D02*
G01*
X140138794Y-35321989D01*
X140150000Y-35373500D01*
X140150000Y-36875500D01*
X140130315Y-36942539D01*
X140077511Y-36988294D01*
X140026000Y-36999500D01*
X139251719Y-36999500D01*
X139248248Y-36999451D01*
X139177974Y-36997483D01*
X139153852Y-36994423D01*
X139015127Y-36962760D01*
X138988918Y-36953589D01*
X138862300Y-36892613D01*
X138838789Y-36877840D01*
X138728915Y-36790218D01*
X138709281Y-36770584D01*
X138621659Y-36660710D01*
X138606886Y-36637199D01*
X138545910Y-36510581D01*
X138536739Y-36484372D01*
X138505076Y-36345647D01*
X138502016Y-36321523D01*
X138500049Y-36251249D01*
X138500000Y-36247780D01*
X138500000Y-35373500D01*
X138519685Y-35306461D01*
X138572489Y-35260706D01*
X138624000Y-35249500D01*
X140026000Y-35249500D01*
X140093039Y-35269185D01*
G37*
G36*
X147443039Y-29269185D02*
G01*
X147488794Y-29321989D01*
X147500000Y-29373500D01*
X147500000Y-30247780D01*
X147499951Y-30251251D01*
X147497983Y-30321525D01*
X147494923Y-30345647D01*
X147463260Y-30484372D01*
X147454089Y-30510581D01*
X147393113Y-30637199D01*
X147378340Y-30660710D01*
X147290718Y-30770584D01*
X147271084Y-30790218D01*
X147161210Y-30877840D01*
X147137699Y-30892613D01*
X147011081Y-30953589D01*
X146984872Y-30962760D01*
X146846147Y-30994423D01*
X146822025Y-30997483D01*
X146751752Y-30999451D01*
X146748281Y-30999500D01*
X145974000Y-30999500D01*
X145906961Y-30979815D01*
X145861206Y-30927011D01*
X145850000Y-30875500D01*
X145850000Y-29373500D01*
X145869685Y-29306461D01*
X145922489Y-29260706D01*
X145974000Y-29249500D01*
X147376000Y-29249500D01*
X147443039Y-29269185D01*
G37*
G36*
X157751751Y-26999549D02*
G01*
X157822024Y-27001516D01*
X157846147Y-27004576D01*
X157984872Y-27036239D01*
X158011081Y-27045410D01*
X158137699Y-27106386D01*
X158161210Y-27121159D01*
X158271084Y-27208781D01*
X158290718Y-27228415D01*
X158378340Y-27338289D01*
X158393113Y-27361800D01*
X158454089Y-27488418D01*
X158463260Y-27514627D01*
X158494923Y-27653352D01*
X158497983Y-27677474D01*
X158499951Y-27747748D01*
X158500000Y-27751219D01*
X158500000Y-28625500D01*
X158480315Y-28692539D01*
X158427511Y-28738294D01*
X158376000Y-28749500D01*
X156974000Y-28749500D01*
X156906961Y-28729815D01*
X156861206Y-28677011D01*
X156850000Y-28625500D01*
X156850000Y-27123500D01*
X156869685Y-27056461D01*
X156922489Y-27010706D01*
X156974000Y-26999500D01*
X157748281Y-26999500D01*
X157751751Y-26999549D01*
G37*
G36*
X157751751Y-38999549D02*
G01*
X157822024Y-39001516D01*
X157846147Y-39004576D01*
X157984872Y-39036239D01*
X158011081Y-39045410D01*
X158137699Y-39106386D01*
X158161210Y-39121159D01*
X158271084Y-39208781D01*
X158290718Y-39228415D01*
X158378340Y-39338289D01*
X158393113Y-39361800D01*
X158454089Y-39488418D01*
X158463260Y-39514627D01*
X158494923Y-39653352D01*
X158497983Y-39677474D01*
X158499951Y-39747748D01*
X158500000Y-39751219D01*
X158500000Y-40625500D01*
X158480315Y-40692539D01*
X158427511Y-40738294D01*
X158376000Y-40749500D01*
X156974000Y-40749500D01*
X156906961Y-40729815D01*
X156861206Y-40677011D01*
X156850000Y-40625500D01*
X156850000Y-39123500D01*
X156869685Y-39056461D01*
X156922489Y-39010706D01*
X156974000Y-38999500D01*
X157748281Y-38999500D01*
X157751751Y-38999549D01*
G37*
G36*
X158443039Y-41269185D02*
G01*
X158488794Y-41321989D01*
X158500000Y-41373500D01*
X158500000Y-42247780D01*
X158499951Y-42251251D01*
X158497983Y-42321525D01*
X158494923Y-42345647D01*
X158463260Y-42484372D01*
X158454089Y-42510581D01*
X158393113Y-42637199D01*
X158378340Y-42660710D01*
X158290718Y-42770584D01*
X158271084Y-42790218D01*
X158161210Y-42877840D01*
X158137699Y-42892613D01*
X158011081Y-42953589D01*
X157984872Y-42962760D01*
X157846147Y-42994423D01*
X157822025Y-42997483D01*
X157751752Y-42999451D01*
X157748281Y-42999500D01*
X156974000Y-42999500D01*
X156906961Y-42979815D01*
X156861206Y-42927011D01*
X156850000Y-42875500D01*
X156850000Y-41373500D01*
X156869685Y-41306461D01*
X156922489Y-41260706D01*
X156974000Y-41249500D01*
X158376000Y-41249500D01*
X158443039Y-41269185D01*
G37*
G36*
X140093039Y-29269185D02*
G01*
X140138794Y-29321989D01*
X140150000Y-29373500D01*
X140150000Y-30875500D01*
X140130315Y-30942539D01*
X140077511Y-30988294D01*
X140026000Y-30999500D01*
X139251719Y-30999500D01*
X139248248Y-30999451D01*
X139177974Y-30997483D01*
X139153852Y-30994423D01*
X139015127Y-30962760D01*
X138988918Y-30953589D01*
X138862300Y-30892613D01*
X138838789Y-30877840D01*
X138728915Y-30790218D01*
X138709281Y-30770584D01*
X138621659Y-30660710D01*
X138606886Y-30637199D01*
X138545910Y-30510581D01*
X138536739Y-30484372D01*
X138505076Y-30345647D01*
X138502016Y-30321523D01*
X138500049Y-30251249D01*
X138500000Y-30247780D01*
X138500000Y-29373500D01*
X138519685Y-29306461D01*
X138572489Y-29260706D01*
X138624000Y-29249500D01*
X140026000Y-29249500D01*
X140093039Y-29269185D01*
G37*
M02*
