G04 #@! TF.GenerationSoftware,KiCad,Pcbnew,8.0.1*
G04 #@! TF.CreationDate,2024-04-17T17:56:07-07:00*
G04 #@! TF.ProjectId,Pinlight_panel,50696e6c-6967-4687-945f-70616e656c2e,rev?*
G04 #@! TF.SameCoordinates,Original*
G04 #@! TF.FileFunction,Copper,L2,Bot*
G04 #@! TF.FilePolarity,Positive*
%FSLAX46Y46*%
G04 Gerber Fmt 4.6, Leading zero omitted, Abs format (unit mm)*
G04 Created by KiCad (PCBNEW 8.0.1) date 2024-04-17 17:56:07*
%MOMM*%
%LPD*%
G01*
G04 APERTURE LIST*
G04 #@! TA.AperFunction,ComponentPad*
%ADD10C,1.000000*%
G04 #@! TD*
G04 APERTURE END LIST*
D10*
X150300000Y-39799500D03*
X157700000Y-39799500D03*
X150300000Y-33799500D03*
X150300000Y-30199500D03*
X146700000Y-33799500D03*
X146700000Y-42199500D03*
X157700000Y-42199500D03*
X150300000Y-27799500D03*
X139300000Y-42199500D03*
X150300000Y-36199500D03*
X139300000Y-30199500D03*
X139300000Y-33799500D03*
X139300000Y-39799500D03*
X157700000Y-33799500D03*
X146700000Y-39799500D03*
X146700000Y-30199500D03*
X157700000Y-30199500D03*
X157700000Y-36199500D03*
X146700000Y-27799500D03*
X157700000Y-27799500D03*
X146700000Y-36199500D03*
X139300000Y-27799500D03*
X139300000Y-36199500D03*
X150300000Y-42199500D03*
G04 #@! TA.AperFunction,NonConductor*
G36*
X140093039Y-33069685D02*
G01*
X140138794Y-33122489D01*
X140150000Y-33174000D01*
X140150000Y-34625500D01*
X140130315Y-34692539D01*
X140077511Y-34738294D01*
X140026000Y-34749500D01*
X138674500Y-34749500D01*
X138607461Y-34729815D01*
X138561706Y-34677011D01*
X138550500Y-34625500D01*
X138550500Y-33755592D01*
X138551097Y-33743438D01*
X138558265Y-33670658D01*
X138562744Y-33625180D01*
X138567483Y-33601356D01*
X138600203Y-33493490D01*
X138609499Y-33471049D01*
X138662632Y-33371644D01*
X138676133Y-33351440D01*
X138747635Y-33264314D01*
X138764814Y-33247135D01*
X138851942Y-33175631D01*
X138872144Y-33162132D01*
X138971549Y-33108999D01*
X138993990Y-33099703D01*
X139101856Y-33066983D01*
X139125682Y-33062244D01*
X139225730Y-33052390D01*
X139243940Y-33050597D01*
X139256093Y-33050000D01*
X140026000Y-33050000D01*
X140093039Y-33069685D01*
G37*
G04 #@! TD.AperFunction*
G04 #@! TA.AperFunction,NonConductor*
G36*
X146756061Y-33050597D02*
G01*
X146874317Y-33062244D01*
X146898145Y-33066983D01*
X147006005Y-33099702D01*
X147028453Y-33109001D01*
X147127849Y-33162129D01*
X147148059Y-33175633D01*
X147213005Y-33228932D01*
X147225529Y-33239211D01*
X147235179Y-33247130D01*
X147252369Y-33264320D01*
X147323866Y-33351440D01*
X147337370Y-33371650D01*
X147390495Y-33471038D01*
X147399798Y-33493497D01*
X147432514Y-33601348D01*
X147437256Y-33625188D01*
X147448903Y-33743437D01*
X147449500Y-33755592D01*
X147449500Y-34625500D01*
X147429815Y-34692539D01*
X147377011Y-34738294D01*
X147325500Y-34749500D01*
X145974000Y-34749500D01*
X145906961Y-34729815D01*
X145861206Y-34677011D01*
X145850000Y-34625500D01*
X145850000Y-33174000D01*
X145869685Y-33106961D01*
X145922489Y-33061206D01*
X145974000Y-33050000D01*
X146733592Y-33050000D01*
X146743907Y-33050000D01*
X146756061Y-33050597D01*
G37*
G04 #@! TD.AperFunction*
G04 #@! TA.AperFunction,NonConductor*
G36*
X158392539Y-35269185D02*
G01*
X158438294Y-35321989D01*
X158449500Y-35373500D01*
X158449500Y-36243407D01*
X158448903Y-36255562D01*
X158437256Y-36373811D01*
X158432514Y-36397651D01*
X158399798Y-36505502D01*
X158390495Y-36527961D01*
X158337370Y-36627349D01*
X158323866Y-36647559D01*
X158252369Y-36734679D01*
X158235179Y-36751869D01*
X158148059Y-36823366D01*
X158127849Y-36836870D01*
X158028461Y-36889995D01*
X158006002Y-36899298D01*
X157898151Y-36932014D01*
X157874311Y-36936756D01*
X157787215Y-36945334D01*
X157756060Y-36948403D01*
X157743907Y-36949000D01*
X156974000Y-36949000D01*
X156906961Y-36929315D01*
X156861206Y-36876511D01*
X156850000Y-36825000D01*
X156850000Y-35373500D01*
X156869685Y-35306461D01*
X156922489Y-35260706D01*
X156974000Y-35249500D01*
X158325500Y-35249500D01*
X158392539Y-35269185D01*
G37*
G04 #@! TD.AperFunction*
G04 #@! TA.AperFunction,NonConductor*
G36*
X151093039Y-27069685D02*
G01*
X151138794Y-27122489D01*
X151150000Y-27174000D01*
X151150000Y-28625500D01*
X151130315Y-28692539D01*
X151077511Y-28738294D01*
X151026000Y-28749500D01*
X149674500Y-28749500D01*
X149607461Y-28729815D01*
X149561706Y-28677011D01*
X149550500Y-28625500D01*
X149550500Y-27755592D01*
X149551097Y-27743438D01*
X149558265Y-27670658D01*
X149562744Y-27625180D01*
X149567483Y-27601356D01*
X149600203Y-27493490D01*
X149609499Y-27471049D01*
X149662632Y-27371644D01*
X149676133Y-27351440D01*
X149747635Y-27264314D01*
X149764814Y-27247135D01*
X149851942Y-27175631D01*
X149872144Y-27162132D01*
X149971549Y-27108999D01*
X149993990Y-27099703D01*
X150101856Y-27066983D01*
X150125682Y-27062244D01*
X150225730Y-27052390D01*
X150243940Y-27050597D01*
X150256093Y-27050000D01*
X151026000Y-27050000D01*
X151093039Y-27069685D01*
G37*
G04 #@! TD.AperFunction*
G04 #@! TA.AperFunction,NonConductor*
G36*
X157756061Y-27050597D02*
G01*
X157874317Y-27062244D01*
X157898145Y-27066983D01*
X158006005Y-27099702D01*
X158028453Y-27109001D01*
X158127849Y-27162129D01*
X158148059Y-27175633D01*
X158213005Y-27228932D01*
X158225529Y-27239211D01*
X158235179Y-27247130D01*
X158252369Y-27264320D01*
X158323866Y-27351440D01*
X158337370Y-27371650D01*
X158390495Y-27471038D01*
X158399798Y-27493497D01*
X158432514Y-27601348D01*
X158437256Y-27625188D01*
X158448903Y-27743437D01*
X158449500Y-27755592D01*
X158449500Y-28625500D01*
X158429815Y-28692539D01*
X158377011Y-28738294D01*
X158325500Y-28749500D01*
X156974000Y-28749500D01*
X156906961Y-28729815D01*
X156861206Y-28677011D01*
X156850000Y-28625500D01*
X156850000Y-27174000D01*
X156869685Y-27106961D01*
X156922489Y-27061206D01*
X156974000Y-27050000D01*
X157733592Y-27050000D01*
X157743907Y-27050000D01*
X157756061Y-27050597D01*
G37*
G04 #@! TD.AperFunction*
G04 #@! TA.AperFunction,NonConductor*
G36*
X157756061Y-33050597D02*
G01*
X157874317Y-33062244D01*
X157898145Y-33066983D01*
X158006005Y-33099702D01*
X158028453Y-33109001D01*
X158127849Y-33162129D01*
X158148059Y-33175633D01*
X158213005Y-33228932D01*
X158225529Y-33239211D01*
X158235179Y-33247130D01*
X158252369Y-33264320D01*
X158323866Y-33351440D01*
X158337370Y-33371650D01*
X158390495Y-33471038D01*
X158399798Y-33493497D01*
X158432514Y-33601348D01*
X158437256Y-33625188D01*
X158448903Y-33743437D01*
X158449500Y-33755592D01*
X158449500Y-34625500D01*
X158429815Y-34692539D01*
X158377011Y-34738294D01*
X158325500Y-34749500D01*
X156974000Y-34749500D01*
X156906961Y-34729815D01*
X156861206Y-34677011D01*
X156850000Y-34625500D01*
X156850000Y-33174000D01*
X156869685Y-33106961D01*
X156922489Y-33061206D01*
X156974000Y-33050000D01*
X157733592Y-33050000D01*
X157743907Y-33050000D01*
X157756061Y-33050597D01*
G37*
G04 #@! TD.AperFunction*
G04 #@! TA.AperFunction,NonConductor*
G36*
X140093039Y-27069685D02*
G01*
X140138794Y-27122489D01*
X140150000Y-27174000D01*
X140150000Y-28625500D01*
X140130315Y-28692539D01*
X140077511Y-28738294D01*
X140026000Y-28749500D01*
X138674500Y-28749500D01*
X138607461Y-28729815D01*
X138561706Y-28677011D01*
X138550500Y-28625500D01*
X138550500Y-27755592D01*
X138551097Y-27743438D01*
X138558265Y-27670658D01*
X138562744Y-27625180D01*
X138567483Y-27601356D01*
X138600203Y-27493490D01*
X138609499Y-27471049D01*
X138662632Y-27371644D01*
X138676133Y-27351440D01*
X138747635Y-27264314D01*
X138764814Y-27247135D01*
X138851942Y-27175631D01*
X138872144Y-27162132D01*
X138971549Y-27108999D01*
X138993990Y-27099703D01*
X139101856Y-27066983D01*
X139125682Y-27062244D01*
X139225730Y-27052390D01*
X139243940Y-27050597D01*
X139256093Y-27050000D01*
X140026000Y-27050000D01*
X140093039Y-27069685D01*
G37*
G04 #@! TD.AperFunction*
G04 #@! TA.AperFunction,NonConductor*
G36*
X140093039Y-35269185D02*
G01*
X140138794Y-35321989D01*
X140150000Y-35373500D01*
X140150000Y-36825000D01*
X140130315Y-36892039D01*
X140077511Y-36937794D01*
X140026000Y-36949000D01*
X139256093Y-36949000D01*
X139243939Y-36948403D01*
X139193081Y-36943393D01*
X139125688Y-36936756D01*
X139101848Y-36932014D01*
X138993997Y-36899298D01*
X138971541Y-36889996D01*
X138872150Y-36836870D01*
X138851940Y-36823366D01*
X138764820Y-36751869D01*
X138747630Y-36734679D01*
X138676133Y-36647559D01*
X138662629Y-36627349D01*
X138609501Y-36527953D01*
X138600201Y-36505502D01*
X138567483Y-36397645D01*
X138562744Y-36373817D01*
X138551097Y-36255561D01*
X138550500Y-36243407D01*
X138550500Y-35373500D01*
X138570185Y-35306461D01*
X138622989Y-35260706D01*
X138674500Y-35249500D01*
X140026000Y-35249500D01*
X140093039Y-35269185D01*
G37*
G04 #@! TD.AperFunction*
G04 #@! TA.AperFunction,NonConductor*
G36*
X158392539Y-41269185D02*
G01*
X158438294Y-41321989D01*
X158449500Y-41373500D01*
X158449500Y-42243407D01*
X158448903Y-42255562D01*
X158437256Y-42373811D01*
X158432514Y-42397651D01*
X158399798Y-42505502D01*
X158390495Y-42527961D01*
X158337370Y-42627349D01*
X158323866Y-42647559D01*
X158252369Y-42734679D01*
X158235179Y-42751869D01*
X158148059Y-42823366D01*
X158127849Y-42836870D01*
X158028461Y-42889995D01*
X158006002Y-42899298D01*
X157898151Y-42932014D01*
X157874311Y-42936756D01*
X157787215Y-42945334D01*
X157756060Y-42948403D01*
X157743907Y-42949000D01*
X156974000Y-42949000D01*
X156906961Y-42929315D01*
X156861206Y-42876511D01*
X156850000Y-42825000D01*
X156850000Y-41373500D01*
X156869685Y-41306461D01*
X156922489Y-41260706D01*
X156974000Y-41249500D01*
X158325500Y-41249500D01*
X158392539Y-41269185D01*
G37*
G04 #@! TD.AperFunction*
G04 #@! TA.AperFunction,NonConductor*
G36*
X151093039Y-41269185D02*
G01*
X151138794Y-41321989D01*
X151150000Y-41373500D01*
X151150000Y-42825000D01*
X151130315Y-42892039D01*
X151077511Y-42937794D01*
X151026000Y-42949000D01*
X150256093Y-42949000D01*
X150243939Y-42948403D01*
X150193081Y-42943393D01*
X150125688Y-42936756D01*
X150101848Y-42932014D01*
X149993997Y-42899298D01*
X149971541Y-42889996D01*
X149872150Y-42836870D01*
X149851940Y-42823366D01*
X149764820Y-42751869D01*
X149747630Y-42734679D01*
X149676133Y-42647559D01*
X149662629Y-42627349D01*
X149609501Y-42527953D01*
X149600201Y-42505502D01*
X149567483Y-42397645D01*
X149562744Y-42373817D01*
X149551097Y-42255561D01*
X149550500Y-42243407D01*
X149550500Y-41373500D01*
X149570185Y-41306461D01*
X149622989Y-41260706D01*
X149674500Y-41249500D01*
X151026000Y-41249500D01*
X151093039Y-41269185D01*
G37*
G04 #@! TD.AperFunction*
G04 #@! TA.AperFunction,NonConductor*
G36*
X151093039Y-33069685D02*
G01*
X151138794Y-33122489D01*
X151150000Y-33174000D01*
X151150000Y-34625500D01*
X151130315Y-34692539D01*
X151077511Y-34738294D01*
X151026000Y-34749500D01*
X149674500Y-34749500D01*
X149607461Y-34729815D01*
X149561706Y-34677011D01*
X149550500Y-34625500D01*
X149550500Y-33755592D01*
X149551097Y-33743438D01*
X149558265Y-33670658D01*
X149562744Y-33625180D01*
X149567483Y-33601356D01*
X149600203Y-33493490D01*
X149609499Y-33471049D01*
X149662632Y-33371644D01*
X149676133Y-33351440D01*
X149747635Y-33264314D01*
X149764814Y-33247135D01*
X149851942Y-33175631D01*
X149872144Y-33162132D01*
X149971549Y-33108999D01*
X149993990Y-33099703D01*
X150101856Y-33066983D01*
X150125682Y-33062244D01*
X150225730Y-33052390D01*
X150243940Y-33050597D01*
X150256093Y-33050000D01*
X151026000Y-33050000D01*
X151093039Y-33069685D01*
G37*
G04 #@! TD.AperFunction*
G04 #@! TA.AperFunction,NonConductor*
G36*
X146756061Y-27050597D02*
G01*
X146874317Y-27062244D01*
X146898145Y-27066983D01*
X147006005Y-27099702D01*
X147028453Y-27109001D01*
X147127849Y-27162129D01*
X147148059Y-27175633D01*
X147213005Y-27228932D01*
X147225529Y-27239211D01*
X147235179Y-27247130D01*
X147252369Y-27264320D01*
X147323866Y-27351440D01*
X147337370Y-27371650D01*
X147390495Y-27471038D01*
X147399798Y-27493497D01*
X147432514Y-27601348D01*
X147437256Y-27625188D01*
X147448903Y-27743437D01*
X147449500Y-27755592D01*
X147449500Y-28625500D01*
X147429815Y-28692539D01*
X147377011Y-28738294D01*
X147325500Y-28749500D01*
X145974000Y-28749500D01*
X145906961Y-28729815D01*
X145861206Y-28677011D01*
X145850000Y-28625500D01*
X145850000Y-27174000D01*
X145869685Y-27106961D01*
X145922489Y-27061206D01*
X145974000Y-27050000D01*
X146733592Y-27050000D01*
X146743907Y-27050000D01*
X146756061Y-27050597D01*
G37*
G04 #@! TD.AperFunction*
G04 #@! TA.AperFunction,NonConductor*
G36*
X140093039Y-29269185D02*
G01*
X140138794Y-29321989D01*
X140150000Y-29373500D01*
X140150000Y-30825000D01*
X140130315Y-30892039D01*
X140077511Y-30937794D01*
X140026000Y-30949000D01*
X139256093Y-30949000D01*
X139243939Y-30948403D01*
X139193081Y-30943393D01*
X139125688Y-30936756D01*
X139101848Y-30932014D01*
X138993997Y-30899298D01*
X138971541Y-30889996D01*
X138872150Y-30836870D01*
X138851940Y-30823366D01*
X138764820Y-30751869D01*
X138747630Y-30734679D01*
X138676133Y-30647559D01*
X138662629Y-30627349D01*
X138609501Y-30527953D01*
X138600201Y-30505502D01*
X138567483Y-30397645D01*
X138562744Y-30373817D01*
X138551097Y-30255561D01*
X138550500Y-30243407D01*
X138550500Y-29373500D01*
X138570185Y-29306461D01*
X138622989Y-29260706D01*
X138674500Y-29249500D01*
X140026000Y-29249500D01*
X140093039Y-29269185D01*
G37*
G04 #@! TD.AperFunction*
G04 #@! TA.AperFunction,NonConductor*
G36*
X151093039Y-35269185D02*
G01*
X151138794Y-35321989D01*
X151150000Y-35373500D01*
X151150000Y-36825000D01*
X151130315Y-36892039D01*
X151077511Y-36937794D01*
X151026000Y-36949000D01*
X150256093Y-36949000D01*
X150243939Y-36948403D01*
X150193081Y-36943393D01*
X150125688Y-36936756D01*
X150101848Y-36932014D01*
X149993997Y-36899298D01*
X149971541Y-36889996D01*
X149872150Y-36836870D01*
X149851940Y-36823366D01*
X149764820Y-36751869D01*
X149747630Y-36734679D01*
X149676133Y-36647559D01*
X149662629Y-36627349D01*
X149609501Y-36527953D01*
X149600201Y-36505502D01*
X149567483Y-36397645D01*
X149562744Y-36373817D01*
X149551097Y-36255561D01*
X149550500Y-36243407D01*
X149550500Y-35373500D01*
X149570185Y-35306461D01*
X149622989Y-35260706D01*
X149674500Y-35249500D01*
X151026000Y-35249500D01*
X151093039Y-35269185D01*
G37*
G04 #@! TD.AperFunction*
G04 #@! TA.AperFunction,NonConductor*
G36*
X151093039Y-39069685D02*
G01*
X151138794Y-39122489D01*
X151150000Y-39174000D01*
X151150000Y-40625500D01*
X151130315Y-40692539D01*
X151077511Y-40738294D01*
X151026000Y-40749500D01*
X149674500Y-40749500D01*
X149607461Y-40729815D01*
X149561706Y-40677011D01*
X149550500Y-40625500D01*
X149550500Y-39755592D01*
X149551097Y-39743438D01*
X149558265Y-39670658D01*
X149562744Y-39625180D01*
X149567483Y-39601356D01*
X149600203Y-39493490D01*
X149609499Y-39471049D01*
X149662632Y-39371644D01*
X149676133Y-39351440D01*
X149747635Y-39264314D01*
X149764814Y-39247135D01*
X149851942Y-39175631D01*
X149872144Y-39162132D01*
X149971549Y-39108999D01*
X149993990Y-39099703D01*
X150101856Y-39066983D01*
X150125682Y-39062244D01*
X150225730Y-39052390D01*
X150243940Y-39050597D01*
X150256093Y-39050000D01*
X151026000Y-39050000D01*
X151093039Y-39069685D01*
G37*
G04 #@! TD.AperFunction*
G04 #@! TA.AperFunction,NonConductor*
G36*
X147392539Y-35269185D02*
G01*
X147438294Y-35321989D01*
X147449500Y-35373500D01*
X147449500Y-36243407D01*
X147448903Y-36255562D01*
X147437256Y-36373811D01*
X147432514Y-36397651D01*
X147399798Y-36505502D01*
X147390495Y-36527961D01*
X147337370Y-36627349D01*
X147323866Y-36647559D01*
X147252369Y-36734679D01*
X147235179Y-36751869D01*
X147148059Y-36823366D01*
X147127849Y-36836870D01*
X147028461Y-36889995D01*
X147006002Y-36899298D01*
X146898151Y-36932014D01*
X146874311Y-36936756D01*
X146787215Y-36945334D01*
X146756060Y-36948403D01*
X146743907Y-36949000D01*
X145974000Y-36949000D01*
X145906961Y-36929315D01*
X145861206Y-36876511D01*
X145850000Y-36825000D01*
X145850000Y-35373500D01*
X145869685Y-35306461D01*
X145922489Y-35260706D01*
X145974000Y-35249500D01*
X147325500Y-35249500D01*
X147392539Y-35269185D01*
G37*
G04 #@! TD.AperFunction*
G04 #@! TA.AperFunction,NonConductor*
G36*
X140093039Y-41269185D02*
G01*
X140138794Y-41321989D01*
X140150000Y-41373500D01*
X140150000Y-42825000D01*
X140130315Y-42892039D01*
X140077511Y-42937794D01*
X140026000Y-42949000D01*
X139256093Y-42949000D01*
X139243939Y-42948403D01*
X139193081Y-42943393D01*
X139125688Y-42936756D01*
X139101848Y-42932014D01*
X138993997Y-42899298D01*
X138971541Y-42889996D01*
X138872150Y-42836870D01*
X138851940Y-42823366D01*
X138764820Y-42751869D01*
X138747630Y-42734679D01*
X138676133Y-42647559D01*
X138662629Y-42627349D01*
X138609501Y-42527953D01*
X138600201Y-42505502D01*
X138567483Y-42397645D01*
X138562744Y-42373817D01*
X138551097Y-42255561D01*
X138550500Y-42243407D01*
X138550500Y-41373500D01*
X138570185Y-41306461D01*
X138622989Y-41260706D01*
X138674500Y-41249500D01*
X140026000Y-41249500D01*
X140093039Y-41269185D01*
G37*
G04 #@! TD.AperFunction*
G04 #@! TA.AperFunction,NonConductor*
G36*
X147392539Y-41269185D02*
G01*
X147438294Y-41321989D01*
X147449500Y-41373500D01*
X147449500Y-42243407D01*
X147448903Y-42255562D01*
X147437256Y-42373811D01*
X147432514Y-42397651D01*
X147399798Y-42505502D01*
X147390495Y-42527961D01*
X147337370Y-42627349D01*
X147323866Y-42647559D01*
X147252369Y-42734679D01*
X147235179Y-42751869D01*
X147148059Y-42823366D01*
X147127849Y-42836870D01*
X147028461Y-42889995D01*
X147006002Y-42899298D01*
X146898151Y-42932014D01*
X146874311Y-42936756D01*
X146787215Y-42945334D01*
X146756060Y-42948403D01*
X146743907Y-42949000D01*
X145974000Y-42949000D01*
X145906961Y-42929315D01*
X145861206Y-42876511D01*
X145850000Y-42825000D01*
X145850000Y-41373500D01*
X145869685Y-41306461D01*
X145922489Y-41260706D01*
X145974000Y-41249500D01*
X147325500Y-41249500D01*
X147392539Y-41269185D01*
G37*
G04 #@! TD.AperFunction*
G04 #@! TA.AperFunction,NonConductor*
G36*
X140093039Y-39069685D02*
G01*
X140138794Y-39122489D01*
X140150000Y-39174000D01*
X140150000Y-40625500D01*
X140130315Y-40692539D01*
X140077511Y-40738294D01*
X140026000Y-40749500D01*
X138674500Y-40749500D01*
X138607461Y-40729815D01*
X138561706Y-40677011D01*
X138550500Y-40625500D01*
X138550500Y-39755592D01*
X138551097Y-39743438D01*
X138558265Y-39670658D01*
X138562744Y-39625180D01*
X138567483Y-39601356D01*
X138600203Y-39493490D01*
X138609499Y-39471049D01*
X138662632Y-39371644D01*
X138676133Y-39351440D01*
X138747635Y-39264314D01*
X138764814Y-39247135D01*
X138851942Y-39175631D01*
X138872144Y-39162132D01*
X138971549Y-39108999D01*
X138993990Y-39099703D01*
X139101856Y-39066983D01*
X139125682Y-39062244D01*
X139225730Y-39052390D01*
X139243940Y-39050597D01*
X139256093Y-39050000D01*
X140026000Y-39050000D01*
X140093039Y-39069685D01*
G37*
G04 #@! TD.AperFunction*
G04 #@! TA.AperFunction,NonConductor*
G36*
X151093039Y-29269185D02*
G01*
X151138794Y-29321989D01*
X151150000Y-29373500D01*
X151150000Y-30825000D01*
X151130315Y-30892039D01*
X151077511Y-30937794D01*
X151026000Y-30949000D01*
X150256093Y-30949000D01*
X150243939Y-30948403D01*
X150193081Y-30943393D01*
X150125688Y-30936756D01*
X150101848Y-30932014D01*
X149993997Y-30899298D01*
X149971541Y-30889996D01*
X149872150Y-30836870D01*
X149851940Y-30823366D01*
X149764820Y-30751869D01*
X149747630Y-30734679D01*
X149676133Y-30647559D01*
X149662629Y-30627349D01*
X149609501Y-30527953D01*
X149600201Y-30505502D01*
X149567483Y-30397645D01*
X149562744Y-30373817D01*
X149551097Y-30255561D01*
X149550500Y-30243407D01*
X149550500Y-29373500D01*
X149570185Y-29306461D01*
X149622989Y-29260706D01*
X149674500Y-29249500D01*
X151026000Y-29249500D01*
X151093039Y-29269185D01*
G37*
G04 #@! TD.AperFunction*
G04 #@! TA.AperFunction,NonConductor*
G36*
X146756061Y-39050597D02*
G01*
X146874317Y-39062244D01*
X146898145Y-39066983D01*
X147006005Y-39099702D01*
X147028453Y-39109001D01*
X147127849Y-39162129D01*
X147148059Y-39175633D01*
X147213005Y-39228932D01*
X147225529Y-39239211D01*
X147235179Y-39247130D01*
X147252369Y-39264320D01*
X147323866Y-39351440D01*
X147337370Y-39371650D01*
X147390495Y-39471038D01*
X147399798Y-39493497D01*
X147432514Y-39601348D01*
X147437256Y-39625188D01*
X147448903Y-39743437D01*
X147449500Y-39755592D01*
X147449500Y-40625500D01*
X147429815Y-40692539D01*
X147377011Y-40738294D01*
X147325500Y-40749500D01*
X145974000Y-40749500D01*
X145906961Y-40729815D01*
X145861206Y-40677011D01*
X145850000Y-40625500D01*
X145850000Y-39174000D01*
X145869685Y-39106961D01*
X145922489Y-39061206D01*
X145974000Y-39050000D01*
X146733592Y-39050000D01*
X146743907Y-39050000D01*
X146756061Y-39050597D01*
G37*
G04 #@! TD.AperFunction*
G04 #@! TA.AperFunction,NonConductor*
G36*
X158392539Y-29269185D02*
G01*
X158438294Y-29321989D01*
X158449500Y-29373500D01*
X158449500Y-30243407D01*
X158448903Y-30255562D01*
X158437256Y-30373811D01*
X158432514Y-30397651D01*
X158399798Y-30505502D01*
X158390495Y-30527961D01*
X158337370Y-30627349D01*
X158323866Y-30647559D01*
X158252369Y-30734679D01*
X158235179Y-30751869D01*
X158148059Y-30823366D01*
X158127849Y-30836870D01*
X158028461Y-30889995D01*
X158006002Y-30899298D01*
X157898151Y-30932014D01*
X157874311Y-30936756D01*
X157787215Y-30945334D01*
X157756060Y-30948403D01*
X157743907Y-30949000D01*
X156974000Y-30949000D01*
X156906961Y-30929315D01*
X156861206Y-30876511D01*
X156850000Y-30825000D01*
X156850000Y-29373500D01*
X156869685Y-29306461D01*
X156922489Y-29260706D01*
X156974000Y-29249500D01*
X158325500Y-29249500D01*
X158392539Y-29269185D01*
G37*
G04 #@! TD.AperFunction*
G04 #@! TA.AperFunction,NonConductor*
G36*
X157756061Y-39050597D02*
G01*
X157874317Y-39062244D01*
X157898145Y-39066983D01*
X158006005Y-39099702D01*
X158028453Y-39109001D01*
X158127849Y-39162129D01*
X158148059Y-39175633D01*
X158213005Y-39228932D01*
X158225529Y-39239211D01*
X158235179Y-39247130D01*
X158252369Y-39264320D01*
X158323866Y-39351440D01*
X158337370Y-39371650D01*
X158390495Y-39471038D01*
X158399798Y-39493497D01*
X158432514Y-39601348D01*
X158437256Y-39625188D01*
X158448903Y-39743437D01*
X158449500Y-39755592D01*
X158449500Y-40625500D01*
X158429815Y-40692539D01*
X158377011Y-40738294D01*
X158325500Y-40749500D01*
X156974000Y-40749500D01*
X156906961Y-40729815D01*
X156861206Y-40677011D01*
X156850000Y-40625500D01*
X156850000Y-39174000D01*
X156869685Y-39106961D01*
X156922489Y-39061206D01*
X156974000Y-39050000D01*
X157733592Y-39050000D01*
X157743907Y-39050000D01*
X157756061Y-39050597D01*
G37*
G04 #@! TD.AperFunction*
G04 #@! TA.AperFunction,NonConductor*
G36*
X147392539Y-29269185D02*
G01*
X147438294Y-29321989D01*
X147449500Y-29373500D01*
X147449500Y-30243407D01*
X147448903Y-30255562D01*
X147437256Y-30373811D01*
X147432514Y-30397651D01*
X147399798Y-30505502D01*
X147390495Y-30527961D01*
X147337370Y-30627349D01*
X147323866Y-30647559D01*
X147252369Y-30734679D01*
X147235179Y-30751869D01*
X147148059Y-30823366D01*
X147127849Y-30836870D01*
X147028461Y-30889995D01*
X147006002Y-30899298D01*
X146898151Y-30932014D01*
X146874311Y-30936756D01*
X146787215Y-30945334D01*
X146756060Y-30948403D01*
X146743907Y-30949000D01*
X145974000Y-30949000D01*
X145906961Y-30929315D01*
X145861206Y-30876511D01*
X145850000Y-30825000D01*
X145850000Y-29373500D01*
X145869685Y-29306461D01*
X145922489Y-29260706D01*
X145974000Y-29249500D01*
X147325500Y-29249500D01*
X147392539Y-29269185D01*
G37*
G04 #@! TD.AperFunction*
M02*
